<?xml version="1.0" encoding="utf-8"?>
<!-- Generator: Adobe Illustrator 19.1.0, SVG Export Plug-In . SVG Version: 6.00 Build 0)  -->
<svg version="1.1" id="Calque_1" xmlns="http://www.w3.org/2000/svg" xmlns:xlink="http://www.w3.org/1999/xlink" x="0px" y="0px"
	 viewBox="-285 410.9 24 21" style="enable-background:new -285 410.9 24 21;" xml:space="preserve">
<title>alimentation_generale</title>
<path d="M-263.5,431.9h-19c-0.3,0-0.5-0.2-0.5-0.5v-12.2c0-0.3,0.2-0.5,0.5-0.5s0.5,0.2,0.5,0.5v11.7h18v-11.7
	c0-0.3,0.2-0.5,0.5-0.5s0.5,0.2,0.5,0.5v12.2C-263,431.7-263.2,431.9-263.5,431.9z"/>
<path d="M-272.5,428.9h-8c-0.3,0-0.5-0.2-0.5-0.5v-6c0-0.3,0.2-0.5,0.5-0.5h8c0.3,0,0.5,0.2,0.5,0.5v6
	C-272,428.7-272.2,428.9-272.5,428.9z M-280,427.9h7v-5h-7V427.9z"/>
<path d="M-265.5,431.9h-5c-0.3,0-0.5-0.2-0.5-0.5v-9c0-0.3,0.2-0.5,0.5-0.5h5c0.3,0,0.5,0.2,0.5,0.5v9
	C-265,431.7-265.2,431.9-265.5,431.9z M-270,430.9h4v-8h-4V430.9z"/>
<path d="M-261.5,415.9h-23c-0.2,0-0.3-0.1-0.4-0.2s-0.1-0.3,0-0.5l2-4c0.1-0.2,0.3-0.3,0.4-0.3h19c0.2,0,0.4,0.1,0.4,0.3l2,4
	c0.1,0.2,0.1,0.3,0,0.5C-261.2,415.8-261.3,415.9-261.5,415.9z M-283.7,414.9h21.4l-1.5-3h-18.4L-283.7,414.9z"/>
<path d="M-276,420.9c-1.4,0-2.7-0.7-3.6-1.7c-0.5,0.4-1.2,0.7-1.9,0.7c0,0,0,0,0,0c-2,0-3.5-1.6-3.5-3.5v-1c0-0.3,0.2-0.5,0.5-0.5
	h23c0.3,0,0.5,0.2,0.5,0.5v1c0,1.9-1.6,3.5-3.5,3.5c-0.7,0-1.4-0.3-1.9-0.7c-0.9,1.1-2.2,1.7-3.5,1.7c-1.1,0-2.2-0.4-3-1.1
	C-273.8,420.5-274.9,420.9-276,420.9z M-279.5,417.9C-279.5,417.9-279.5,417.9-279.5,417.9c0.2,0,0.3,0.1,0.4,0.2
	c0.7,1.1,1.8,1.7,3.1,1.8c1,0,1.9-0.4,2.6-1.2c0.2-0.2,0.6-0.2,0.8,0c0.7,0.8,1.6,1.2,2.6,1.2c1.2,0,2.4-0.7,3.1-1.8
	c0.1-0.1,0.2-0.2,0.4-0.2c0.2,0,0.3,0.1,0.4,0.2c0.4,0.5,1,0.8,1.6,0.8c1.3,0,2.5-1.1,2.5-2.5v-0.5h-22v0.5c0,1.4,1.1,2.5,2.5,2.5
	c0.6,0,1.2-0.3,1.6-0.8C-279.8,418-279.6,417.9-279.5,417.9z"/>
<path d="M-279.5,418.9c-0.3,0-0.5-0.2-0.5-0.5v-3c0,0,0-0.1,0-0.1l1-4c0.1-0.3,0.3-0.4,0.6-0.4c0.3,0.1,0.4,0.3,0.4,0.6l-1,3.9v2.9
	C-279,418.7-279.2,418.9-279.5,418.9z"/>
<path d="M-273,419.5c-0.3,0-0.5-0.2-0.5-0.5v-7.6c0-0.3,0.2-0.5,0.5-0.5s0.5,0.2,0.5,0.5v7.6C-272.5,419.3-272.7,419.5-273,419.5z"
	/>
<path d="M-266.5,418.9c-0.3,0-0.5-0.2-0.5-0.5v-2.9l-1-3.9c-0.1-0.3,0.1-0.5,0.4-0.6c0.3-0.1,0.5,0.1,0.6,0.4l1,4c0,0,0,0.1,0,0.1v3
	C-266,418.7-266.2,418.9-266.5,418.9z"/>
<path d="M-267.5,426.9c-0.3,0-0.5,0.2-0.5,0.5s0.2,0.5,0.5,0.5s0.5-0.2,0.5-0.5S-267.2,426.9-267.5,426.9L-267.5,426.9z"/>
</svg>
