<?xml version="1.0" encoding="utf-8"?>
<!-- Generator: Adobe Illustrator 19.1.0, SVG Export Plug-In . SVG Version: 6.00 Build 0)  -->
<svg version="1.1" id="Calque_1" xmlns="http://www.w3.org/2000/svg" xmlns:xlink="http://www.w3.org/1999/xlink" x="0px" y="0px"
	 viewBox="-285 410.7 23.7 20.2" style="enable-background:new -285 410.7 23.7 20.2;" xml:space="preserve">
<path d="M-273.1,428.7c-0.1,0-0.3-0.1-0.4-0.1l-5.7-5.7c-0.2-0.2-0.2-0.5,0-0.7l11.3-11.3c0.2-0.2,0.5-0.2,0.7,0l5.7,5.7
	c0.2,0.2,0.2,0.5,0,0.7l-11.3,11.3C-272.8,428.6-273,428.7-273.1,428.7z M-278.1,422.5l5,5l10.6-10.6l-5-5L-278.1,422.5z"/>
<rect x="-269.4" y="413.1" transform="matrix(0.7071 0.7071 -0.7071 0.7071 219.0176 313.4551)" width="1" height="16"/>
<path d="M-283,430.9c-0.5,0-1-0.2-1.4-0.6c0,0,0,0,0,0c-0.8-0.8-0.8-2,0-2.8l5.3-5.3c0.1-0.1,0.2-0.1,0.4-0.1l0,0
	c0.1,0,0.3,0.1,0.4,0.1l2.1,2.1c0.2,0.2,0.2,0.5,0,0.7l-5.3,5.3C-282,430.7-282.5,430.9-283,430.9z M-283.7,429.6
	c0.4,0.4,1,0.4,1.4,0l4.9-4.9l-1.4-1.4l-4.9,4.9C-284.1,428.6-284.1,429.2-283.7,429.6z"/>
<circle cx="-267.4" cy="414.7" r="1"/>
</svg>
