<?xml version="1.0" encoding="utf-8"?>
<!-- Generator: Adobe Illustrator 19.1.0, SVG Export Plug-In . SVG Version: 6.00 Build 0)  -->
<svg version="1.1" id="Calque_1" xmlns="http://www.w3.org/2000/svg" xmlns:xlink="http://www.w3.org/1999/xlink" x="0px" y="0px"
	 viewBox="-285 409.9 24 23" style="enable-background:new -285 409.9 24 23;" xml:space="preserve">
<title>boulangerie_patisserie</title>
<path d="M-266.5,432.9h-13c-0.1,0-0.3-0.1-0.4-0.1l-5-5c-0.1-0.1-0.2-0.4-0.1-0.5c0.1-0.2,0.3-0.3,0.5-0.3h11
	c-0.3-0.4-0.5-0.9-0.5-1.5c0-2.5,2-4.5,4.5-4.5h3c2.5,0,4.5,2,4.5,4.5c0,0.6-0.2,1.1-0.5,1.5h1c0.2,0,0.4,0.1,0.5,0.3s0,0.4-0.1,0.5
	l-5,5C-266.2,432.8-266.4,432.9-266.5,432.9z M-279.3,431.9h12.6l4-4h-20.6L-279.3,431.9z M-269.5,421.9c-1.9,0-3.5,1.6-3.5,3.5
	c0,0.8,0.7,1.5,1.5,1.5h7c0.8,0,1.5-0.7,1.5-1.5c0-1.9-1.6-3.5-3.5-3.5H-269.5z"/>
<path d="M-266.3,425.4c0,0-0.1,0-0.1,0c-0.3-0.1-0.4-0.3-0.3-0.6c0.3-1,0.2-2-0.2-2.9l-0.1-0.3c-0.1-0.3,0-0.5,0.2-0.7
	c0.3-0.1,0.5,0,0.7,0.2l0.2,0.3c0.5,1.1,0.6,2.4,0.2,3.6C-265.9,425.3-266.1,425.4-266.3,425.4z M-268.3,425.4c0,0-0.1,0-0.1,0
	c-0.3-0.1-0.4-0.3-0.3-0.6c0.3-1,0.2-2-0.2-2.9l-0.1-0.4c-0.1-0.3,0-0.5,0.3-0.6c0.3-0.1,0.5,0,0.6,0.3l0.1,0.3
	c0.5,1.1,0.5,2.4,0.2,3.5C-267.9,425.3-268.1,425.4-268.3,425.4z M-270.3,425.4c0,0-0.1,0-0.1,0c-0.3-0.1-0.4-0.3-0.3-0.6
	c0.3-1,0.2-2-0.2-2.9l-0.1-0.1c-0.1-0.2,0-0.5,0.2-0.7c0.2-0.1,0.5,0,0.7,0.2l0.1,0.2c0.5,1.2,0.6,2.4,0.2,3.6
	C-269.9,425.3-270.1,425.4-270.3,425.4z"/>
<path d="M-274.9,427.8l-0.7-0.7l1.7-1.7l0.7,0.7L-274.9,427.8z M-282.1,427.4l-1-0.1c0.1-0.8,0.4-1.6,1-2.3L-268,411
	c0,0,0.1-0.1,0.2-0.2c0.7-0.6,1.6-1,2.5-0.9c0.9,0,1.8,0.4,2.4,1.1c0.6,0.7,1,1.6,0.9,2.5c0,0.9-0.4,1.8-1.1,2.4l-5.8,5.8l-0.7-0.7
	l5.8-5.8c0.5-0.5,0.8-1.1,0.8-1.8c0-0.7-0.2-1.3-0.7-1.8c-0.5-0.5-1.1-0.8-1.7-0.8c-0.7,0-1.3,0.2-1.8,0.7c0,0-0.1,0.1-0.1,0.1
	l-1.3,1.3c0.2,0.3,0.5,0.5,0.7,0.7c0.4,0.4,0.9,0.8,0.9,1.3c0,0.3-0.2,0.7-0.5,1c-0.3,0.3-0.7,0.4-1.2,0.4c-0.7,0-1.5-0.5-2.1-1.1
	l-2.5,2.5c0.2,0.3,0.5,0.5,0.7,0.7c0.4,0.4,0.9,0.8,0.9,1.3c0,0.3-0.2,0.7-0.5,1c-0.3,0.3-0.7,0.4-1.2,0.4c-0.7,0-1.5-0.5-2.2-1.1
	l-2.3,2.3c0.2,0.3,0.5,0.5,0.7,0.7c0.4,0.4,0.9,0.8,0.9,1.3c0,0.3-0.2,0.7-0.5,1c-0.3,0.3-0.7,0.4-1.2,0.4c-0.7,0-1.5-0.4-2.1-1.1
	l-1.3,1.3C-281.8,426.3-282.1,426.8-282.1,427.4z M-279.4,423.8c0.5,0.5,1.1,0.8,1.5,0.8c0.2,0,0.3,0,0.4-0.1
	c0.2-0.2,0.2-0.2,0.2-0.2c0-0.1-0.3-0.4-0.5-0.6c-0.2-0.2-0.5-0.4-0.7-0.7L-279.4,423.8z M-274.9,419.3c0.5,0.6,1.1,0.8,1.5,0.8
	c0.2,0,0.3,0,0.4-0.1c0.2-0.2,0.2-0.2,0.2-0.2c0-0.1-0.3-0.4-0.5-0.6c-0.2-0.2-0.5-0.5-0.8-0.8L-274.9,419.3z M-270.1,414.5
	c0.5,0.5,1.1,0.8,1.5,0.8c0.2,0,0.3,0,0.4-0.1c0.2-0.2,0.2-0.2,0.2-0.2c0-0.1-0.3-0.4-0.5-0.6c-0.2-0.2-0.5-0.5-0.8-0.8
	L-270.1,414.5z"/>
</svg>
