<?xml version="1.0" encoding="utf-8"?>
<!-- Generator: Adobe Illustrator 19.1.0, SVG Export Plug-In . SVG Version: 6.00 Build 0)  -->
<svg version="1.1" id="Calque_1" xmlns="http://www.w3.org/2000/svg" xmlns:xlink="http://www.w3.org/1999/xlink" x="0px" y="0px"
	 viewBox="-290 408.9 15 24" style="enable-background:new -290 408.9 15 24;" xml:space="preserve">
<title>chocolatier</title>
<path d="M-277.5,432.9h-10c-1.4,0-2.5-1.1-2.5-2.5v-9c0,0,0,0,0-0.1c0-0.1,0-0.2,0.1-0.2c0,0,0-0.1,0.1-0.1c0.1-0.1,0.2-0.1,0.3-0.1
	l0,0c0,0,0,0,0,0c0,0,0,0,0,0c0,0,0,0,0,0h0c0,0,0,0,0,0h0.5v-10.5c0-0.8,0.7-1.5,1.5-1.5h10c0.8,0,1.5,0.7,1.5,1.5v10.5h0.5
	c0,0,0,0,0,0l0,0c0,0,0,0,0,0l0,0c0.1,0,0.2,0,0.3,0.1c0,0,0,0,0,0v0c0,0,0,0,0,0c0,0,0,0,0,0c0.1,0.1,0.1,0.2,0.1,0.3v9
	C-275,431.8-276.1,432.9-277.5,432.9z M-289,422.2v8.1c0,0.8,0.7,1.5,1.5,1.5h10c0.8,0,1.5-0.7,1.5-1.5v-6.3l-1.5,4
	c-0.1,0.1-0.2,0.2-0.3,0.3c-0.1,0.1-0.3,0-0.4,0L-289,422.2z M-287.6,421.9l9.4,5.3l2-5.3H-287.6z M-281.1,420.9h4.1v-4.5
	L-281.1,420.9z M-287.1,420.9h4.1v-4.7L-287.1,420.9z M-282,415.9v4.5l4.1-4.5H-282z M-288,415.9v4.5l3.9-4.5H-288z M-280.9,414.9
	h3.9v-4.2L-280.9,414.9z M-286.9,414.9h3.9v-4.5L-286.9,414.9z M-282,409.9v4.8l4.4-4.8H-282z M-287.5,409.9c-0.3,0-0.5,0.2-0.5,0.5
	v4.2l4.1-4.7H-287.5z"/>
</svg>
