<svg id="Capa_1" enable-background="new 0 0 512 512" height="512" viewBox="0 0 512 512" width="512" xmlns="http://www.w3.org/2000/svg"><g><g><g><path d="m489.833 186.195h-34.591c-2.228 0-4.335.518-6.231 1.417.238 3.826.362 7.688.362 11.577v28.651c4.603 3.959 8.702 8.485 12.184 13.474h28.276c8.063 0 14.661-6.597 14.661-14.661v-25.798c0-8.063-6.597-14.66-14.661-14.66z" fill="#dfebfa"/></g><g fill="#b1dbfc"><path d="m472.863 226.653v-25.798c0-8.063 6.597-14.661 14.661-14.661h-32.281c-2.228 0-4.335.518-6.231 1.417.238 3.826.362 7.688.362 11.577v28.651c4.603 3.959 8.701 8.485 12.184 13.474h25.967c-8.064.001-14.662-6.597-14.662-14.66z"/><path d="m449.374 227.839h-.001z"/></g><g><path d="m54.727 227.839v-28.651c0-4.371.17-8.704.47-12.994h-33.042c-8.063 0-14.661 6.597-14.661 14.661v25.798c0 8.063 6.597 14.661 14.661 14.661h20.388c3.483-4.989 7.581-9.515 12.184-13.475z" fill="#dfebfa"/></g><path d="m31.346 226.653v-25.798c0-8.063 6.597-14.661 14.661-14.661h-23.852c-8.063 0-14.661 6.597-14.661 14.661v25.798c0 8.063 6.597 14.661 14.661 14.661h20.388c.086-.123.177-.243.263-.365-6.535-1.472-11.46-7.332-11.46-14.296z" fill="#b1dbfc"/><g><path d="m99.341 211.616h305.419c17.762 0 34.056 6.62 46.614 17.517v-28.903c0-30.686-7.376-59.8-20.768-81.978-14.584-24.149-34.571-37.449-56.281-37.449h-244.55c-21.71 0-41.697 13.3-56.281 37.449-13.392 22.178-20.768 51.292-20.768 81.978v28.903c12.559-10.896 28.853-17.517 46.615-17.517z" fill="#ff4756"/></g><g><path d="m84.883 200.23c0-30.686 7.376-59.8 20.768-81.978 14.584-24.149 34.571-37.449 56.281-37.449h-32.156c-21.71 0-41.697 13.3-56.281 37.449-13.392 22.178-20.768 51.292-20.768 81.978v28.903c9.057-7.858 20.063-13.475 32.156-16.006z" fill="#fc2d39"/></g><g><path d="m99.341 211.616h305.419c7.438 0 14.619 1.161 21.378 3.307v-14.693c0-26.079-6.068-50.489-17.084-68.734-9.827-16.273-22.16-25.235-34.728-25.235h-244.55c-12.568 0-24.901 8.962-34.728 25.235-11.016 18.245-17.084 42.655-17.084 68.734v14.693c6.758-2.146 13.939-3.307 21.377-3.307z" fill="#60b8fe"/></g><g><path d="m110.119 200.23c0-26.079 6.067-50.489 17.084-68.734 9.827-16.273 22.16-25.235 34.728-25.235h-32.156c-12.568 0-24.901 8.962-34.728 25.235-11.016 18.245-17.084 42.655-17.084 68.734v14.693c6.759-2.146 13.94-3.307 21.377-3.307h10.778v-11.386z" fill="#23a8fe"/></g><path d="m342.288 148.059c-30.695 0-55.579 25.102-55.579 56.068 0 2.541.184 5.038.508 7.489h25.305c-.591-2.399-.91-4.906-.91-7.489 0-17.091 13.734-30.946 30.676-30.946s30.676 13.855 30.676 30.946c0 2.583-.319 5.091-.91 7.489h25.305c.325-2.452.508-4.948.508-7.489 0-30.966-24.884-56.068-55.579-56.068z" fill="#23a8fe"/><path d="m342.288 148.059c-30.695 0-55.579 25.102-55.579 56.068 0 2.541.184 5.038.508 7.489h25.305c-.591-2.399-.91-4.906-.91-7.489 0-17.091 13.734-30.946 30.676-30.946s30.676 13.855 30.676 30.946c0 2.583-.319 5.091-.91 7.489h25.305c.325-2.452.508-4.948.508-7.489 0-30.966-24.884-56.068-55.579-56.068z" fill="#23a8fe"/><g><path d="m314.632 190.721c4.924-20.237 20.732-36.149 40.812-41.068-4.219-1.034-8.622-1.594-13.156-1.594-30.695 0-55.579 25.102-55.579 56.068 0 2.541.184 5.038.508 7.489h25.305c-.591-2.399-.91-4.906-.91-7.489 0-4.803 1.085-9.35 3.02-13.406z" fill="#0193fa"/></g><path d="m404.76 210.476h-305.419c-39.423 0-71.678 32.255-71.678 71.678v73.31c1.06-.306 2.175-.479 3.33-.479h166.92c2.214-2.96 5.734-4.893 9.693-4.893h88.888c3.959 0 7.479 1.933 9.693 4.893h166.92c1.155 0 2.27.173 3.33.479v-73.31c0-39.424-32.254-71.678-71.677-71.678z" fill="#ff656f"/><g><path d="m74.726 282.153c0-39.423 32.255-71.678 71.677-71.678h-47.062c-39.423 0-71.677 32.255-71.677 71.678v73.31c1.06-.306 2.175-.479 3.33-.479h43.733v-72.831z" fill="#ff4756"/></g><path d="m304.301 280.469c13.292 0 25.629-6.908 32.575-18.24l31.724-51.754h-233.099l31.723 51.754c6.946 11.332 19.283 18.24 32.575 18.24z" fill="#ff4756"/><path d="m210.475 262.229-31.723-51.754h-43.25l31.724 51.754c6.947 11.332 19.283 18.24 32.575 18.24h43.25c-13.293 0-25.63-6.908-32.576-18.24z" fill="#fc2d39"/><circle cx="411.85" cy="282.39" fill="#ffd301" r="29.235"/><circle cx="92.25" cy="282.39" fill="#ffd301" r="29.235"/><path d="m411.615 282.39c0-10.868 5.935-20.343 14.735-25.382-4.274-2.447-9.221-3.853-14.5-3.853-16.146 0-29.235 13.089-29.235 29.235s13.089 29.235 29.235 29.235c5.279 0 10.226-1.406 14.5-3.853-8.8-5.039-14.735-14.515-14.735-25.382z" fill="#ffc20c"/><path d="m92.015 282.39c0-10.868 5.935-20.343 14.735-25.382-4.274-2.447-9.222-3.853-14.5-3.853-16.146 0-29.235 13.089-29.235 29.235s13.089 29.235 29.235 29.235c5.278 0 10.226-1.406 14.5-3.853-8.8-5.039-14.735-14.515-14.735-25.382z" fill="#ffc20c"/><g><path d="m371.685 384.836v32.063c0 8.165 6.681 14.846 14.846 14.846h65.696c8.165 0 14.846-6.681 14.846-14.846v-32.063z" fill="#665e68"/></g><path d="m415.418 416.899v-32.063h-43.733v32.063c0 8.165 6.681 14.846 14.846 14.846h43.732c-8.165 0-14.845-6.68-14.845-14.846z" fill="#544e55"/><g><path d="m37.028 384.836v32.063c0 8.165 6.681 14.846 14.846 14.846h65.696c8.165 0 14.846-6.681 14.846-14.846v-32.063z" fill="#665e68"/></g><path d="m80.761 416.899v-32.063h-43.733v32.063c0 8.165 6.681 14.846 14.846 14.846h43.733c-8.166 0-14.846-6.68-14.846-14.846z" fill="#544e55"/><path d="m196.493 380.617v-23.412c0-2.704.908-5.199 2.42-7.22h-167.92c-6.662 0-12.113 5.451-12.113 12.113v13.626c0 6.662 5.451 12.113 12.113 12.113h167.92c-1.511-2.022-2.42-4.517-2.42-7.22z" fill="#dfebfa"/><path d="m62.613 375.723v-13.625c0-6.662 5.451-12.113 12.113-12.113h-43.733c-6.662 0-12.113 5.451-12.113 12.113v13.625c0 6.663 5.451 12.114 12.113 12.114h43.733c-6.662-.001-12.113-5.451-12.113-12.114z" fill="#b1dbfc"/><path d="m473.108 349.984h-167.92c1.512 2.021 2.42 4.516 2.42 7.22v23.412c0 2.704-.908 5.199-2.42 7.22h167.92c6.662 0 12.113-5.451 12.113-12.113v-13.626c0-6.662-5.451-12.113-12.113-12.113z" fill="#dfebfa"/><path d="m299.494 392.73h-94.888c-6.662 0-12.113-5.451-12.113-12.113v-23.413c0-6.662 5.451-12.113 12.113-12.113h94.888c6.662 0 12.113 5.451 12.113 12.113v23.413c.001 6.662-5.45 12.113-12.113 12.113z" fill="#b1dbfc"/><path d="m236.226 380.617v-23.413c0-6.662 5.451-12.113 12.113-12.113h-43.732c-6.662 0-12.113 5.451-12.113 12.113v23.413c0 6.662 5.451 12.114 12.113 12.114h43.732c-6.662-.001-12.113-5.452-12.113-12.114z" fill="#8bcaff"/></g><g fill="#050402"><path d="m489.84 178.421h-32.074c-5.4-50.22-34.126-105.393-83.435-105.393h-244.55c-24.425 0-46.688 14.462-62.686 40.722-11.025 18.1-18.155 40.551-20.749 64.671h-24.185c-12.22 0-22.161 9.941-22.161 22.16v25.798c0 12.22 9.941 22.161 22.161 22.161h5.394c-4.728 10.14-7.386 21.432-7.386 33.339v63.607c-5.288 3.517-8.783 9.524-8.783 16.337v13.626c0 10.32 8.018 18.785 18.148 19.539v21.637c0 12.322 10.024 22.347 22.346 22.347h65.696c12.321 0 22.346-10.024 22.346-22.347v-21.563h51.772c3.455 3.036 7.969 4.894 12.918 4.894h94.888c4.95 0 9.464-1.858 12.918-4.894h51.772v21.563c0 12.322 10.024 22.347 22.347 22.347h65.696c12.321 0 22.346-10.024 22.346-22.347v-21.637c10.13-.755 18.147-9.219 18.147-19.539v-13.626c0-6.813-3.496-12.82-8.783-16.337v-25.09c0-4.143-3.357-7.5-7.5-7.5s-7.5 3.357-7.5 7.5v21.813h-156.525c-3.567-3.136-8.216-4.894-12.918-4.894h-94.888c-4.766 0-9.408 1.808-12.918 4.894h-156.525v-60.331c0-35.952 29.615-64.178 64.178-64.178h31.96l29.529 48.174c8.251 13.459 23.183 21.82 38.97 21.82h104.502c15.786 0 30.718-8.361 38.97-21.82l29.528-48.174h31.96c34.496 0 64.178 28.152 64.178 64.178v3.518c0 4.143 3.357 7.5 7.5 7.5s7.5-3.357 7.5-7.5c-.194-1.953 1.401-18.01-7.386-36.856h13.282c12.219 0 22.16-9.941 22.16-22.161v-25.798c0-12.219-9.941-22.16-22.16-22.16zm-467.679 55.119c-3.948 0-7.161-3.213-7.161-7.161v-25.798c0-3.948 3.213-7.16 7.161-7.16h23.156c-.052 1.826-.084 3.657-.084 5.494v25.241c-3.086 2.895-5.939 6.032-8.531 9.384zm102.761 183.085c0 4.051-3.295 7.347-7.346 7.347h-65.696c-4.051 0-7.346-3.296-7.346-7.347v-21.563h80.388zm334.657 0c0 4.051-3.295 7.347-7.346 7.347h-65.696c-4.051 0-7.347-3.296-7.347-7.347v-21.563h80.389zm13.534-59.415c.263 0 .519.036.771.081.104.019.208.042.312.068 1.996.504 3.53 2.337 3.53 4.464v13.626c0 2.501-2.112 4.613-4.613 4.613-16.46 0-137.77 0-153.999 0v-22.852zm-173.613-4.894c2.507 0 4.613 2.146 4.613 4.613v23.413c0 2.356-2.005 4.613-4.613 4.613h-94.888c-2.618 0-4.613-2.266-4.613-4.613v-23.412c0-2.463 2.098-4.613 4.613-4.613h94.888zm-114.501 4.894v22.853c-15.8 0-139.486 0-154 0-2.501 0-4.613-2.112-4.613-4.613v-13.626c0-2.126 1.531-3.958 3.525-4.463.107-.027.213-.051.318-.07.252-.045.507-.08.77-.08h154zm-99.529-153.28v-5.015c0-24.493 5.678-47.306 15.988-64.232 8.414-13.812 18.473-21.418 28.323-21.418h108.719c4.143 0 7.5-3.357 7.5-7.5s-3.357-7.5-7.5-7.5h-108.719c-15.284 0-29.892 10.162-41.134 28.614-11.722 19.246-18.178 44.829-18.178 72.036v9.262c-3.544 1.393-6.962 3.033-10.236 4.902v-14.164c0-26.381 5.935-54.809 19.673-77.361 13.171-21.619 30.884-33.525 49.875-33.525h244.55c18.992 0 36.705 11.906 49.876 33.524 13.687 22.469 19.673 50.734 19.673 77.362v14.165c-3.274-1.869-6.693-3.509-10.236-4.902v-9.263c0-27.208-6.456-52.791-18.179-72.036-11.24-18.452-25.849-28.614-41.133-28.614h-100.832c-4.143 0-7.5 3.357-7.5 7.5s3.357 7.5 7.5 7.5h100.832c9.851 0 19.909 7.606 28.322 21.417 10.311 16.928 15.989 39.739 15.989 64.233v5.015c-4.001-.715-8.733-1.183-13.272-1.219-.036-34.752-28.317-63.013-63.077-63.013-34.757 0-63.036 28.256-63.077 63.003-22.212 0-156.974 0-179.87 0-4.69 0-9.754.491-13.877 1.229zm245.018 54.105c-5.543 9.043-15.575 14.66-26.181 14.66h-104.501c-10.606 0-20.638-5.617-26.181-14.66l-24.724-40.334h206.311zm-11.368-55.334c.042-12.744 10.42-23.1 23.174-23.1s23.132 10.355 23.174 23.1zm61.35 0c-.042-21.015-17.151-38.1-38.176-38.1s-38.134 17.085-38.176 38.1h-9.903c.042-26.476 21.594-48.003 48.079-48.003s48.037 21.527 48.079 48.003zm116.53 23.678c0 3.948-3.212 7.161-7.16 7.161h-22.43c-2.592-3.351-5.445-6.488-8.531-9.383v-25.242c0-1.819-.026-3.654-.079-5.494h31.039c3.948 0 7.16 3.212 7.16 7.16v25.798z"/><path d="m192.751 300.85c-4.143 0-7.5 3.357-7.5 7.5s3.357 7.5 7.5 7.5h118.61c4.143 0 7.5-3.357 7.5-7.5s-3.357-7.5-7.5-7.5z"/><path d="m411.856 245.381c-20.256 0-36.735 16.479-36.735 36.734s16.479 36.735 36.735 36.735 36.735-16.479 36.735-36.735-16.479-36.734-36.735-36.734zm0 58.47c-11.985 0-21.735-9.75-21.735-21.735 0-11.984 9.75-21.734 21.735-21.734s21.735 9.75 21.735 21.734c.001 11.985-9.749 21.735-21.735 21.735z"/><path d="m55.521 282.115c0 20.256 16.479 36.735 36.735 36.735s36.734-16.479 36.734-36.735-16.479-36.734-36.734-36.734-36.735 16.478-36.735 36.734zm58.47 0c0 11.985-9.75 21.735-21.734 21.735-11.985 0-21.735-9.75-21.735-21.735 0-11.984 9.75-21.734 21.735-21.734 11.984 0 21.734 9.75 21.734 21.734z"/></g></g></svg>