<?xml version="1.0" encoding="utf-8"?>
<!-- Generator: Adobe Illustrator 19.1.0, SVG Export Plug-In . SVG Version: 6.00 Build 0)  -->
<svg version="1.1" id="Calque_1" xmlns="http://www.w3.org/2000/svg" xmlns:xlink="http://www.w3.org/1999/xlink" x="0px" y="0px"
	 viewBox="-285 408.9 24 24" style="enable-background:new -285 408.9 24 24;" xml:space="preserve">
<title>fromagerie</title>
<path d="M-284.5,420.9c-0.1,0-0.3-0.1-0.4-0.2c-0.2-0.2-0.2-0.5,0-0.7l12.5-11c0.1-0.1,0.2-0.1,0.3-0.1c4.5,0,11,3,11,8.5
	c0,0.3-0.2,0.5-0.5,0.5s-0.5-0.2-0.5-0.5c0-4.8-5.7-7.4-9.8-7.5l-12.4,10.9C-284.3,420.9-284.4,420.9-284.5,420.9z"/>
<path d="M-265,423.4c-1.1,0-2-0.9-2-2s0.9-2,2-2s2,0.9,2,2S-263.9,423.4-265,423.4z M-265,420.4c-0.6,0-1,0.4-1,1s0.4,1,1,1
	s1-0.4,1-1S-264.4,420.4-265,420.4z"/>
<path d="M-279,424.4c-0.8,0-1.5-0.7-1.5-1.5s0.7-1.5,1.5-1.5s1.5,0.7,1.5,1.5S-278.2,424.4-279,424.4z M-279,422.4
	c-0.3,0-0.5,0.2-0.5,0.5s0.2,0.5,0.5,0.5s0.5-0.2,0.5-0.5S-278.7,422.4-279,422.4z"/>
<circle cx="-267" cy="425.9" r="1"/>
<path d="M-271,421.9c-0.3,0-0.5,0.2-0.5,0.5s0.2,0.5,0.5,0.5s0.5-0.2,0.5-0.5S-270.7,421.9-271,421.9z"/>
<path d="M-274,429.4c-1.4,0-2.5-1.1-2.5-2.5s1.1-2.5,2.5-2.5s2.5,1.1,2.5,2.5S-272.6,429.4-274,429.4z M-274,425.4
	c-0.8,0-1.5,0.7-1.5,1.5s0.7,1.5,1.5,1.5s1.5-0.7,1.5-1.5S-273.2,425.4-274,425.4z"/>
<path d="M-284.5,432.9c-0.1,0-0.2,0-0.3-0.1c-0.1-0.1-0.2-0.2-0.2-0.4v-2c0-0.3,0.2-0.5,0.5-0.5c0.8,0,1.5-0.7,1.5-1.5
	s-0.7-1.5-1.5-1.5c-0.3,0-0.5-0.2-0.5-0.5v-6c0-0.3,0.2-0.5,0.4-0.5l23-3c0.1,0,0.3,0,0.4,0.1c0.1,0.1,0.2,0.2,0.2,0.4v12
	c0,0.3-0.2,0.5-0.4,0.5L-284.5,432.9C-284.5,432.9-284.5,432.9-284.5,432.9z M-284,430.9v1l22-2.9v-11l-22,2.9v5.1
	c1.1,0.2,2,1.2,2,2.5S-282.9,430.6-284,430.9z"/>
</svg>
