<?xml version="1.0" encoding="iso-8859-1"?>
<!-- Generator: Adobe Illustrator 19.0.0, SVG Export Plug-In . SVG Version: 6.00 Build 0)  -->
<svg version="1.1" id="Capa_1" xmlns="http://www.w3.org/2000/svg" xmlns:xlink="http://www.w3.org/1999/xlink" x="0px" y="0px"
	 viewBox="0 0 512.004 512.004" style="enable-background:new 0 0 512.004 512.004;" xml:space="preserve">
<g transform="translate(0 -1)">
	<path style="fill:#FFA800;" d="M503.469,214.342h-56.32l-156.757-68.096l-7.68-3.328c-5.02-2.12-10.76-1.642-15.36,1.28
		l-1.365-2.389c5.397-2.592,10.193-6.283,14.08-10.837c4.705-5.894,12.733-7.979,19.712-5.12L503.469,214.342z"/>
	<path style="fill:#FFFFFF;" d="M157.357,64.155c-28.672,11.696-54.234,29.896-74.667,53.163c-0.87,0.838-1.696,1.721-2.475,2.645
		c-22.032,25.714-37.467,56.409-44.971,89.429l-1.109,4.949h-25.6l1.109-4.949c7.504-33.02,22.939-63.715,44.971-89.429
		c0.779-0.924,1.605-1.807,2.475-2.645c21.423-24.322,48.377-43.14,78.592-54.869c5.999-2.366,12.694-2.243,18.603,0.341
		L157.357,64.155z"/>
	<path style="fill:#FEDD0A;" d="M447.149,214.342H34.135l1.109-4.949c7.504-33.02,22.939-63.715,44.971-89.429
		c0.779-0.924,1.605-1.807,2.475-2.645c20.433-23.267,45.995-41.467,74.667-53.163l38.059,16.469
		c6.753,2.994,10.717,10.088,9.728,17.408c-0.668,5.393-0.321,10.863,1.024,16.128c4.264,16.4,17.827,28.724,34.56,31.403
		c6.488,1.014,13.123,0.487,19.371-1.536c2.038-0.522,4.012-1.266,5.888-2.219l1.365,2.389c4.6-2.922,10.34-3.4,15.36-1.28
		l2.731,1.195l4.949,2.133L447.149,214.342z"/>
	<path style="fill:#FFA800;" d="M471.725,282.609c-0.394,15.596,9.996,29.414,25.088,33.365c3.916,0.922,6.676,4.425,6.656,8.448
		v103.253c0.483,13.639-10.169,25.094-23.808,25.6H359.682c-3.994-0.129-7.312-3.123-7.851-7.083
		c-2.568-15.276-15.577-26.606-31.061-27.051c-3.257-0.031-6.493,0.518-9.558,1.621c-2.988-1.055-6.132-1.603-9.301-1.621
		c-2.538-0.007-5.065,0.338-7.509,1.024c-11.794,3.744-20.474,13.81-22.443,26.027c-0.439,3.877-3.613,6.871-7.509,7.083H66.477
		c-13.639-0.506-24.291-11.961-23.808-25.6V214.342h460.8v26.453c0.02,4.023-2.74,7.526-6.656,8.448
		C481.72,253.195,471.331,267.012,471.725,282.609L471.725,282.609z"/>
	<path style="fill:#FFFFFF;" d="M437.591,282.609c-0.394,15.596,9.996,29.414,25.088,33.365c3.916,0.922,6.676,4.425,6.656,8.448
		v103.253c0.483,13.639-10.169,25.094-23.808,25.6H339.373c-3.915-0.205-7.118-3.191-7.595-7.083
		c-2.134-15.037-14.692-26.411-29.867-27.051c-2.538-0.007-5.065,0.338-7.509,1.024c-2.531-0.686-5.143-1.031-7.765-1.024
		c-15.505,0.39-28.545,11.746-31.061,27.051c-0.603,3.959-3.934,6.932-7.936,7.083H32.343c-13.639-0.506-24.291-11.961-23.808-25.6
		V214.342h460.8v26.453c0.02,4.023-2.74,7.526-6.656,8.448C447.587,253.195,437.198,267.012,437.591,282.609L437.591,282.609z"/>
	<path style="fill:#FEDD0A;" d="M447.234,282.609c-0.544,15.368,9.452,29.13,24.235,33.365c3.841,0.981,6.495,4.485,6.4,8.448
		v103.253c0.713,13.402-9.555,24.853-22.955,25.6H339.373c-3.915-0.205-7.118-3.191-7.595-7.083
		c-1.873-11.518-9.694-21.189-20.565-25.429c-2.988-1.055-6.132-1.603-9.301-1.621c-2.538-0.007-5.065,0.338-7.509,1.024
		c-11.794,3.744-20.474,13.81-22.443,26.027c-0.439,3.877-3.613,6.871-7.509,7.083H57.09c-13.4-0.747-23.668-12.198-22.955-25.6
		V214.342h443.733v26.453c0.095,3.963-2.559,7.467-6.4,8.448C456.686,253.479,446.69,267.241,447.234,282.609L447.234,282.609z"/>
	<g>
		<circle style="fill:#FFA800;" cx="443.74" cy="393.541" r="25.6"/>
		<circle style="fill:#FFA800;" cx="196.27" cy="333.811" r="42.667"/>
		<circle style="fill:#FFA800;" cx="324.27" cy="291.141" r="34.13"/>
		<circle style="fill:#FFA800;" cx="76.8" cy="291.141" r="17.07"/>
		<circle style="fill:#FFA800;" cx="93.87" cy="393.541" r="17.07"/>
	</g>
	<g>
		<circle style="fill:#FEDD0A;" cx="170.67" cy="333.811" r="42.667"/>
		<circle style="fill:#FEDD0A;" cx="298.67" cy="291.141" r="34.13"/>
	</g>
	<g>
		<path d="M477.869,461.809H349.015c-8.204-0.004-15.251-5.828-16.8-13.884c-2.514-11.811-12.946-20.254-25.021-20.25
			c-12.075,0.004-22.502,8.454-25.008,20.267c-1.554,8.049-8.598,13.865-16.796,13.867H34.135
			c-18.843-0.02-34.113-15.29-34.133-34.133v-34.133c0-4.713,3.821-8.533,8.533-8.533s8.533,3.82,8.533,8.533v34.133
			c0.011,9.421,7.645,17.056,17.067,17.067H265.39c4.039-19.808,21.427-34.06,41.642-34.133s37.706,14.055,41.887,33.833l128.95,0.3
			c9.421-0.011,17.056-7.645,17.067-17.067v-103.25c-19.783-4.04-34.026-21.392-34.133-41.583s13.952-37.693,33.691-41.942
			l0.3-18.025H17.069v102.4c0,4.713-3.821,8.533-8.533,8.533s-8.533-3.82-8.533-8.533V214.342c-0.001-2.263,0.898-4.434,2.499-6.035
			c1.6-1.6,3.771-2.499,6.035-2.499H503.47c2.263-0.001,4.434,0.898,6.035,2.499c1.6,1.6,2.499,3.771,2.499,6.035v26.45
			c-0.028,8.225-5.886,15.275-13.967,16.808c-11.784,2.555-20.185,12.99-20.167,25.047s8.451,22.466,20.242,24.986
			c8.05,1.555,13.873,8.593,13.892,16.792v103.25C511.982,446.518,496.712,461.789,477.869,461.809L477.869,461.809z"/>
		<path d="M8.535,367.942c-1.116-0.013-2.219-0.245-3.246-0.683c-1.033-0.432-1.984-1.038-2.813-1.791
			c-2.441-2.443-3.152-6.124-1.796-9.3c0.433-1.035,1.04-1.988,1.796-2.817c0.405-0.368,0.832-0.71,1.279-1.025
			c0.474-0.324,0.99-0.582,1.533-0.767c0.485-0.246,1.003-0.42,1.538-0.517c1.124-0.25,2.289-0.25,3.412,0
			c0.535,0.096,1.053,0.27,1.538,0.517c0.545,0.184,1.062,0.442,1.538,0.767c0.446,0.317,0.873,0.659,1.28,1.025
			c0.771,0.817,1.379,1.773,1.792,2.817c1.124,2.624,0.847,5.638-0.737,8.014C14.066,366.556,11.39,367.97,8.535,367.942z"/>
		<path d="M503.469,222.875H8.535c-2.591,0-5.042-1.177-6.662-3.2s-2.233-4.672-1.667-7.2l1.108-4.95
			c7.854-34.372,23.921-66.328,46.825-93.133c22.805-26.605,51.812-47.183,84.458-59.917c8.091-3.197,17.124-3.026,25.087,0.475
			l41.1,17.833c10.288,4.442,16.351,15.199,14.825,26.3c-0.543,4.34-0.269,8.744,0.808,12.983
			c3.232,12.328,13.061,21.829,25.492,24.642c12.43,2.813,25.392-1.531,33.617-11.266c7.144-8.759,19.201-11.77,29.625-7.4
			l203.717,88.475c3.708,1.611,5.776,5.604,4.954,9.562C511,220.038,507.512,222.875,503.469,222.875L503.469,222.875z
			 M19.298,205.809h443.1l-166.046-72.117c-3.53-1.373-7.542-0.228-9.817,2.8c-12.368,14.609-31.849,21.101-50.508,16.833
			s-33.38-18.584-38.167-37.117c-1.59-6.295-1.992-12.832-1.183-19.275c0.525-3.56-1.389-7.034-4.679-8.492L150.89,70.6
			c-3.834-1.678-8.179-1.762-12.075-0.233c-30.045,11.717-56.74,30.655-77.725,55.142C41.231,148.747,26.937,176.211,19.298,205.809
			L19.298,205.809z"/>
		<path d="M443.735,427.675c-18.851,0-34.133-15.282-34.133-34.133c0-18.851,15.282-34.133,34.133-34.133
			s34.133,15.282,34.133,34.133C477.849,412.385,462.578,427.655,443.735,427.675L443.735,427.675z M443.735,376.475
			c-9.426,0-17.067,7.641-17.067,17.067s7.641,17.067,17.067,17.067s17.067-7.641,17.067-17.067
			C460.791,384.121,453.157,376.486,443.735,376.475z"/>
		<path d="M196.269,385.009c-28.277,0-51.2-22.923-51.2-51.2s22.923-51.2,51.2-51.2s51.2,22.923,51.2,51.2
			C247.438,362.073,224.533,384.978,196.269,385.009L196.269,385.009z M196.269,299.675c-18.851,0-34.133,15.282-34.133,34.133
			c0,18.851,15.282,34.133,34.133,34.133s34.133-15.282,34.133-34.133C230.382,314.966,215.112,299.696,196.269,299.675
			L196.269,299.675z"/>
		<path d="M324.269,333.809c-17.257,0-32.815-10.395-39.419-26.339c-6.604-15.943-2.954-34.295,9.249-46.498
			c12.203-12.203,30.554-15.853,46.498-9.249c15.943,6.604,26.339,22.162,26.339,39.419
			C366.908,314.695,347.821,333.781,324.269,333.809z M324.269,265.542c-14.138,0-25.6,11.462-25.6,25.6s11.462,25.6,25.6,25.6
			s25.6-11.462,25.6-25.6C349.853,277.01,338.401,265.558,324.269,265.542L324.269,265.542z"/>
		<path d="M76.802,316.742c-14.138,0-25.6-11.462-25.6-25.6s11.462-25.6,25.6-25.6s25.6,11.462,25.6,25.6
			C102.387,305.274,90.934,316.727,76.802,316.742z M76.802,282.609c-4.713,0-8.533,3.821-8.533,8.533s3.82,8.533,8.533,8.533
			s8.533-3.82,8.533-8.533C85.331,286.431,81.513,282.613,76.802,282.609L76.802,282.609z"/>
		<path d="M93.869,419.142c-14.138,0-25.6-11.462-25.6-25.6s11.462-25.6,25.6-25.6s25.6,11.462,25.6,25.6
			C119.453,407.674,108.001,419.127,93.869,419.142z M93.869,385.009c-4.713,0-8.533,3.82-8.533,8.533s3.821,8.533,8.533,8.533
			c4.713,0,8.533-3.82,8.533-8.533C102.397,388.831,98.58,385.013,93.869,385.009z"/>
		<path d="M298.669,385.009c-1.116-0.013-2.219-0.245-3.246-0.683c-2.141-0.78-3.828-2.467-4.608-4.608
			c-0.906-2.066-0.906-4.417,0-6.483c0.433-1.035,1.04-1.988,1.795-2.817c3.421-3.158,8.695-3.158,12.117,0
			c0.753,0.83,1.359,1.783,1.792,2.817c0.478,1.012,0.712,2.123,0.683,3.242c-0.01,2.264-0.897,4.435-2.475,6.059
			c-0.83,0.753-1.783,1.359-2.817,1.792C300.885,384.763,299.784,384.995,298.669,385.009L298.669,385.009z"/>
		<path d="M213.335,265.542c-2.854,0.027-5.529-1.388-7.113-3.763c-1.584-2.374-1.863-5.388-0.742-8.012
			c0.433-1.035,1.04-1.988,1.796-2.817c0.8-0.79,1.759-1.4,2.813-1.792c3.178-1.341,6.851-0.633,9.304,1.792
			c0.771,0.817,1.379,1.773,1.792,2.817c1.124,2.624,0.847,5.638-0.737,8.013S216.19,265.57,213.335,265.542L213.335,265.542z"/>
		<path d="M418.135,308.209c-2.854,0.027-5.529-1.388-7.113-3.763c-1.584-2.374-1.863-5.388-0.742-8.012
			c0.413-1.045,1.022-2.001,1.796-2.817c1.994-2.072,4.909-2.981,7.727-2.41c2.818,0.571,5.15,2.542,6.181,5.227
			c1.124,2.624,0.847,5.638-0.736,8.013S420.99,308.237,418.135,308.209L418.135,308.209z"/>
	</g>
</g>
<g>
</g>
<g>
</g>
<g>
</g>
<g>
</g>
<g>
</g>
<g>
</g>
<g>
</g>
<g>
</g>
<g>
</g>
<g>
</g>
<g>
</g>
<g>
</g>
<g>
</g>
<g>
</g>
<g>
</g>
</svg>
