<?xml version="1.0" encoding="utf-8"?>
<!-- Generator: Adobe Illustrator 19.1.0, SVG Export Plug-In . SVG Version: 6.00 Build 0)  -->
<svg version="1.1" id="Calque_1" xmlns="http://www.w3.org/2000/svg" xmlns:xlink="http://www.w3.org/1999/xlink" x="0px" y="0px"
	 viewBox="-290 408.5 14.8 24.4" style="enable-background:new -290 408.5 14.8 24.4;" xml:space="preserve">
<title>glacier</title>
<path d="M-279.1,412.9c-0.3,0-0.5-0.2-0.5-0.5c-0.1-1.5-1.3-2.7-2.8-2.8c-0.8,0-1.5,0.2-2.1,0.8c-0.6,0.5-0.9,1.3-1,2
	c0,0.3-0.3,0.5-0.5,0.5c-0.3,0-0.5-0.3-0.5-0.5c0.1-1.1,0.5-2,1.3-2.7c0.8-0.7,1.8-1.1,2.9-1c2,0.1,3.6,1.7,3.7,3.7
	C-278.6,412.7-278.8,412.9-279.1,412.9C-279.1,412.9-279.1,412.9-279.1,412.9z"/>
<path d="M-282.6,432.9c-0.2,0-0.4-0.1-0.5-0.3l-4.5-12.8c-0.1-0.3,0-0.5,0.3-0.6c0.3-0.1,0.5,0,0.6,0.3l4.1,11.5l4.1-11.5
	c0.1-0.3,0.4-0.4,0.6-0.3c0.3,0.1,0.4,0.4,0.3,0.6l-4.5,12.8C-282.2,432.8-282.4,432.9-282.6,432.9z"/>
<path d="M-286,420.2c-2.2,0-4-1.8-4-4s1.8-4,4-4s4,1.8,4,4S-283.9,420.2-286,420.2z M-286,413.3c-1.6,0-3,1.3-3,3s1.3,3,3,3
	s3-1.3,3-3S-284.4,413.3-286,413.3z"/>
<path d="M-279.1,420.2c-2.2,0-4-1.8-4-4s1.8-4,4-4s4,1.8,4,4S-276.9,420.2-279.1,420.2z M-279.1,413.3c-1.6,0-3,1.3-3,3s1.3,3,3,3
	s3-1.3,3-3S-277.5,413.3-279.1,413.3z"/>
</svg>
