<svg height="512" viewBox="0 0 128 128" width="512" xmlns="http://www.w3.org/2000/svg"><g><g><path d="m118.869 10.833c10.325 10.324-11.066 37.3-40.9 67.132s-56.808 51.228-67.133 40.9c-6.336-6.328-5.865-24.027 2.308-43.665.226-.526.451-1.071.7-1.6 1.211-2.79 2.583-5.608 4.095-8.436.123-.216.235-.441.367-.667a116.891 116.891 0 0 1 13.885-20.01c.347-.4.7-.817 1.071-1.221 1.538-1.742 3.152-3.466 4.838-5.166.949-.949 1.917-1.879 2.884-2.79l.094-.094a119.345 119.345 0 0 1 19.452-14.632c.413-.244.817-.479 1.221-.714 2.931-1.71 5.862-3.25 8.746-4.631.038-.019.066-.029.1-.047 21.423-10.109 41.452-11.18 48.272-4.359z" fill="#e2a76f"/><g fill="#c08e5e"><path d="m61.451 57.222c-6.1-4.5-17.747-9.892-28.193-13.95 1.542-1.748 3.156-3.472 4.842-5.172.949-.949 1.917-1.879 2.884-2.79l.094-.094a208.478 208.478 0 0 1 20.373 22.006z"/><path d="m39.383 79.29c-5.909-2.6-16.328-4.6-25.543-5.684 1.211-2.79 2.583-5.608 4.095-8.436.123-.216.235-.441.367-.667a174.992 174.992 0 0 1 21.081 14.787z"/><path d="m70.5 15.239a176.912 176.912 0 0 1 14.8 18.131c-5.042-4.162-14.643-9.37-23.549-13.5 2.931-1.71 5.862-3.25 8.749-4.631z"/></g></g><g fill="#190d28"><path d="m67.411 85.848q-1.077 1.031-2.146 2.039a1.75 1.75 0 0 0 2.4 2.545q1.077-1.017 2.162-2.053a1.75 1.75 0 0 0 -2.418-2.531z"/><path d="m120.106 9.6c-7.754-7.756-28.889-6.068-50.245 4.011l-.119.054c-3.032 1.451-6.016 3.032-8.871 4.7l-1.246.728a121.135 121.135 0 0 0 -19.776 14.887l-.094.094c-.967.913-1.936 1.843-2.885 2.793-1.67 1.665-3.323 3.433-4.909 5.233-.377.415-.744.84-1.1 1.253a118.4 118.4 0 0 0 -14.071 20.27c-.085.144-.163.289-.239.431l-.158.291c-1.548 2.893-2.947 5.775-4.141 8.525-.2.426-.384.864-.568 1.3l-.155.364c-8.222 19.747-9.016 38.488-1.929 45.572a10.9 10.9 0 0 0 8.056 3.2c9.621 0 24.369-9.325 45.281-28.466a1.75 1.75 0 0 0 -2.363-2.582c-25.594 23.428-41.911 31.966-48.5 25.378-5.155-5.155-5.887-21.153 2.682-41.739l.152-.357.014-.032c10.086 1.257 18.9 3.25 23.758 5.389a1.75 1.75 0 0 0 1.82-2.954 176.122 176.122 0 0 0 -19.839-14.053 115.005 115.005 0 0 1 12.853-18.256c.079-.092.167-.19.248-.283 11.652 4.594 21.561 9.525 26.65 13.279a1.75 1.75 0 0 0 2.415-2.489 204.336 204.336 0 0 0 -19.177-20.881 117.545 117.545 0 0 1 17.769-13.169l1.214-.709c2.411-1.407 4.924-2.733 7.464-3.983 2.691 2.948 5.208 5.858 7.515 8.706-2.557-1.5-5.134-2.877-7.346-4.018a1.75 1.75 0 1 0 -1.6 3.111c6.849 3.531 12.364 6.913 15.526 9.522a1.75 1.75 0 0 0 2.548-2.354 172.944 172.944 0 0 0 -13.34-16.535c20.811-9.295 38.686-9.3 44.229-3.761 4.114 4.114 2.225 12.2-5.613 24.046-7.013 10.593-18.557 23.878-35.29 40.612q-2.492 2.49-4.951 4.9a1.75 1.75 0 1 0 2.447 2.5q2.478-2.419 4.978-4.928c16.9-16.9 28.591-30.364 35.734-41.155 9.015-13.61 10.706-22.917 5.172-28.445zm-103.701 62.562c.793-1.719 1.657-3.461 2.568-5.2 3.3 2.031 7.357 4.659 11.615 7.742a142.035 142.035 0 0 0 -14.183-2.542zm36.987-21.822c-4.83-2.521-10.713-5.193-17.136-7.765 1.02-1.107 2.049-2.2 3.087-3.233.568-.568 1.162-1.128 1.746-1.689 4.478 4.289 8.599 8.532 12.303 12.687z"/><path d="m96.416 52.155c1.913-2.208 3.718-4.363 5.365-6.4a1.75 1.75 0 0 0 -2.723-2.2c-1.622 2.01-3.4 4.133-5.287 6.31a1.75 1.75 0 1 0 2.645 2.292z"/></g></g></svg>