<?xml version="1.0" encoding="utf-8"?>
<!-- Generator: Adobe Illustrator 19.1.0, SVG Export Plug-In . SVG Version: 6.00 Build 0)  -->
<svg version="1.1" id="Calque_1" xmlns="http://www.w3.org/2000/svg" xmlns:xlink="http://www.w3.org/1999/xlink" x="0px" y="0px"
	 viewBox="-286 409.1 22.8 22.8" style="enable-background:new -286 409.1 22.8 22.8;" xml:space="preserve">
<title>poissonnerie</title>
<path d="M-279.9,431.9C-279.9,431.9-279.9,431.9-279.9,431.9c-0.2,0-0.4-0.1-0.5-0.3l-1.6-3.6l-3.8-1.8c-0.2-0.1-0.3-0.3-0.3-0.4
	c0-0.2,0.1-0.4,0.3-0.5l5.4-2.7c0-0.7,0.1-1.3,0.3-2l-2.7-2.7c-0.1-0.1-0.2-0.3-0.1-0.5c0,0,1-4.7,6.8-4.8l0,0.1c0,0,0,0,0.1-0.1
	c4.3-4.3,11-3.9,12-2.8l0,0c1,1,1.4,6.4-1.6,10.6c-0.1,0.9-0.7,3.9-4.8,7.9c-0.1,0.1-0.2,0.1-0.4,0.1c-0.1,0-0.3-0.1-0.4-0.1
	l-2.8-2.9l0.7-0.7l2.5,2.5c2.1-2.2,3.2-4,3.7-5.3l-9.6,4.1l-2.7,5.5C-279.5,431.8-279.7,431.9-279.9,431.9z M-284.3,425.7l3.1,1.5
	c0.1,0.1,0.2,0.1,0.2,0.2l1.2,2.8l2.2-4.4l-2.3-2.3L-284.3,425.7z M-279.3,422.7l2.4,2.5l9.5-4.1c4-4.1,3.3-10.1,2.8-10.6l0,0
	c-0.5-0.5-6.6-1.2-10.6,2.8C-277.6,415.9-279.1,419.2-279.3,422.7z M-281.8,417.5l2,2c0.6-2.1,1.6-4,2.9-5.7
	C-280.4,414.2-281.5,416.7-281.8,417.5z"/>
<path d="M-270,415.2c-0.8,0-1.5-0.7-1.5-1.5s0.7-1.5,1.5-1.5s1.5,0.7,1.5,1.5S-269.1,415.2-270,415.2z M-270,413.2
	c-0.3,0-0.5,0.2-0.5,0.5s0.2,0.5,0.5,0.5s0.5-0.2,0.5-0.5S-269.7,413.2-270,413.2z"/>
</svg>
