<svg height="512pt" viewBox="0 -32 512.00127 512" width="512pt" xmlns="http://www.w3.org/2000/svg"><path d="m504.492188 149.742188c0 105.097656-85.199219 164.667968-190.296876 164.667968-105.097656 0-190.296874-59.570312-190.296874-164.667968 0-105.097657 85.199218-142.242188 190.296874-142.242188 105.097657 0 190.296876 37.144531 190.296876 142.242188zm0 0" fill="#ff592a"/><path d="m425.738281 26.945312c10.136719 18.550782 15.769531 41.054688 15.769531 68.050782 0 105.097656-85.195312 164.667968-190.296874 164.667968-37.78125 0-72.996094-7.699218-102.601563-22.445312 32.710937 50.015625 94.605469 77.191406 165.585937 77.191406 105.097657 0 190.296876-59.570312 190.296876-164.667968 0-63.429688-31.039063-102.097657-78.753907-122.796876zm0 0" fill="#f63511"/><path d="m318.214844 41.273438 5.703125 11.5625c.65625 1.320312 1.914062 2.238281 3.375 2.449218l12.757812 1.855469c3.675781.53125 5.140625 5.046875 2.484375 7.640625l-9.234375 9c-1.054687 1.027344-1.535156 2.511719-1.285156 3.964844l2.175781 12.703125c.628906 3.660156-3.210937 6.453125-6.5 4.722656l-11.410156-6c-1.304688-.683594-2.863281-.683594-4.167969 0l-11.410156 6c-3.289063 1.730469-7.128906-1.0625-6.5-4.722656l2.175781-12.703125c.25-1.453125-.230468-2.9375-1.285156-3.964844l-9.234375-9c-2.65625-2.59375-1.191406-7.109375 2.484375-7.640625l12.757812-1.855469c1.460938-.210937 2.71875-1.128906 3.375-2.449218l5.703126-11.5625c1.644531-3.328126 6.390624-3.328126 8.035156 0zm0 0" fill="#276b77"/><path d="m342.53125 64.78125c2.660156-2.59375 1.195312-7.109375-2.480469-7.644531l-12.757812-1.851563c-1.460938-.210937-2.722657-1.128906-3.375-2.453125l-5.707031-11.558593c-1.640626-3.332032-6.390626-3.332032-8.03125 0l-4.652344 9.425781 1.050781 2.132812c.65625 1.324219 1.914063 2.238281 3.375 2.453125l12.757813 1.851563c3.671874.535156 5.140624 5.050781 2.484374 7.644531l-9.234374 8.996094c-1.054688 1.03125-1.539063 2.511718-1.289063 3.964844l1.996094 11.636718 11.023437 5.792969c3.285156 1.730469 7.128906-1.0625 6.5-4.722656l-2.179687-12.707031c-.25-1.453126.234375-2.933594 1.289062-3.964844zm0 0" fill="#115863"/><path d="m159.585938 325.382812c-2.289063-46.085937-14-86.992187-31.449219-115.898437h96.058593c-10.660156 16.121094-16.785156 36.496094-16.226562 58.515625.144531 5.707031.753906 11.269531 1.746094 16.667969 14.8125-26.433594 38.117187-48.339844 66.671875-62.828125v19.332031c-35.789063 38.109375-59.601563 87.558594-65.464844 142.40625-.269531 2.527344-2.425781 4.429687-4.964844 4.429687h-55.75c-2.542969 0-4.695312-1.90625-4.964843-4.433593-5.664063-52.953125-28.03125-100.898438-61.78125-138.445313v-16.042968c37.761718 21.765624 65.597656 56.058593 76.125 96.296874zm0 0" fill="#276b77"/><path d="m30.253906 161.867188c18.488282-18.488282 42.730469-26.101563 62.140625-21.5 1.722657.410156 3.515625-.324219 4.398438-1.859376 14.839843-25.722656 46.480469-43.488281 83.132812-43.488281 36.652344 0 68.289063 17.765625 83.132813 43.488281.882812 1.535157 2.675781 2.269532 4.398437 1.859376 19.410157-4.601563 43.652344 3.011718 62.140625 21.5 25.542969 25.542968 30.394532 62.113281 10.832032 81.675781-19.566407 19.5625-56.132813 14.714843-81.679688-10.832031-2.449219-2.453126-4.691406-5.011719-6.746094-7.644532-1.410156-1.804687-4.039062-2-5.773437-.507812-16.757813 14.421875-40.257813 23.402344-66.304688 23.402344-26.042969 0-49.546875-8.980469-66.300781-23.402344-1.734375-1.492188-4.367188-1.296875-5.773438.507812-2.058593 2.632813-4.300781 5.191406-6.75 7.644532-25.546874 25.546874-62.113281 30.398437-81.679687 10.832031-19.5625-19.5625-14.714844-56.128907 10.832031-81.675781zm0 0" fill="#00d642"/><path d="m329.59375 161.867188c-7.984375-7.984376-17.042969-13.9375-26.320312-17.753907 19.148437 22.414063 21.910156 52.074219 5.5625 68.417969-17.449219 17.453125-50.066407 13.125-72.855469-9.660156-1.402344-1.40625-2.730469-2.847656-3.984375-4.324219-2.414063-2.835937-6.664063-3.28125-9.585938-.964844-14.75 11.699219-34.726562 18.890625-56.742187 18.890625-22.011719 0-41.992188-7.191406-56.742188-18.890625-2.917969-2.316406-7.167969-1.871093-9.582031.964844-1.257812 1.476563-2.582031 2.917969-3.988281 4.324219-22.785157 22.785156-55.40625 27.113281-72.855469 9.660156-6.183594-6.179688-9.617188-14.273438-10.480469-23.152344-7.863281 20.0625-5.785156 40.976563 7.402344 54.164063 19.5625 19.5625 56.132813 14.714843 81.679687-10.832031 2.449219-2.453126 4.691407-5.011719 6.746094-7.644532 1.40625-1.804687 4.039063-2 5.773438-.507812 16.753906 14.421875 40.257812 23.402344 66.304687 23.402344 26.042969 0 49.546875-8.980469 66.300781-23.402344 1.734376-1.492188 4.363282-1.296875 5.773438.507812 2.054688 2.632813 4.296875 5.191406 6.75 7.644532 25.542969 25.546874 62.113281 30.398437 81.675781 10.832031 19.566407-19.5625 14.714844-56.128907-10.832031-81.675781zm0 0" fill="#00b142"/><path d="m258.75 232.710938c-.101562-.101563-.195312-.207032-.296875-.308594-20.390625 13.746094-37.164063 31.617187-48.738281 52.265625-.992188-5.398438-1.601563-10.960938-1.746094-16.667969-.058594-2.328125-.027344-4.628906.058594-6.917969-27.234375 35.90625-44.867188 79.472657-49.082032 126.925781h47.011719c2.542969 0 4.695313-1.90625 4.964844-4.433593 5.699219-53.300781 28.355469-101.5 62.472656-139.152344-5.128906-3.226563-10.066406-7.132813-14.644531-11.710937zm0 0" fill="#115863"/><path d="m383.449219 365.875c0 41.226562-33.421875 74.644531-74.644531 74.644531-26.46875 0-183.558594-30.765625-283.292969-52.796875-23.402344-5.167968-23.402344-38.527344 0-43.695312 99.734375-22.03125 256.824219-52.796875 283.292969-52.796875 41.222656 0 74.644531 33.417969 74.644531 74.644531zm0 0" fill="#fa0"/><path d="m337.8125 297.078125c3.765625 8.917969 5.847656 18.722656 5.847656 29.011719 0 41.222656-33.417968 74.644531-74.644531 74.644531-24.261719 0-160.378906-25.855469-257.542969-47.132813-7.5625 11.898438-2.886718 30.386719 14.039063 34.125 99.734375 22.027344 256.824219 52.796876 283.292969 52.796876 41.222656 0 74.644531-33.421876 74.644531-74.648438 0-30.9375-18.820313-57.476562-45.636719-68.796875zm0 0" fill="#ff8500"/><g fill="#ff6d00"><path d="m261.90625 390.695312c-1.269531 0-2.558594-.324218-3.742188-1.003906l-14.792968-8.539062c-2.320313-1.339844-3.75-3.816406-3.75-6.496094s1.429687-5.15625 3.75-6.496094l14.792968-8.539062c3.585938-2.074219 8.171876-.84375 10.246094 2.746094 2.070313 3.585937.839844 8.171874-2.746094 10.242187l-3.542968 2.046875 3.542968 2.042969c3.585938 2.074219 4.816407 6.660156 2.746094 10.246093-1.390625 2.40625-3.910156 3.75-6.503906 3.75zm0 0"/><path d="m221.976562 352.125c-1.273437 0-2.5625-.324219-3.746093-1.003906l-14.789063-8.542969c-2.320312-1.339844-3.75-3.8125-3.75-6.492187 0-2.679688 1.425782-5.15625 3.746094-6.496094l14.792969-8.539063c3.585937-2.070312 8.171875-.84375 10.246093 2.742188 2.070313 3.589843.839844 8.175781-2.746093 10.246093l-3.542969 2.046876 3.542969 2.042968c3.585937 2.070313 4.816406 6.65625 2.746093 10.246094-1.390624 2.40625-3.910156 3.75-6.5 3.75zm0 0"/><path d="m297.847656 352.125c-1.273437 0-2.5625-.324219-3.742187-1.003906l-14.792969-8.542969c-2.320312-1.339844-3.75-3.8125-3.75-6.492187 0-2.679688 1.429688-5.15625 3.75-6.496094l14.792969-8.539063c3.585937-2.070312 8.171875-.84375 10.242187 2.742188 2.070313 3.589843.84375 8.175781-2.742187 10.246093l-3.542969 2.046876 3.542969 2.042968c3.585937 2.070313 4.8125 6.65625 2.742187 10.246094-1.386718 2.40625-3.910156 3.75-6.5 3.75zm0 0"/></g><path d="m438.863281 393.617188v-55.472657c12.457031-7.980469 22.285157-16.390625 28.78125-22.535156 3.398438-3.21875.816407-8.925781-3.84375-8.5-13.582031 1.242187-36.238281 4.832031-59.136719 15.179687-17.832031 8.0625-32.492187 18.722657-42.78125 27.472657-9.753906 8.292969-9.769531 23.324219-.019531 31.621093 10.792969 9.1875 25.972657 20.46875 42.804688 28.078126 22.890625 10.347656 45.542969 13.9375 59.125 15.175781 4.664062.429687 7.242187-5.28125 3.84375-8.496094-6.496094-6.144531-16.324219-14.550781-28.773438-22.523437zm0 0" fill="#00d642"/><path d="m462.453125 411.417969c-13.699219-1.347657-35.617187-5.023438-57.789063-15.046875-16.832031-7.605469-32.007812-18.886719-42.804687-28.074219-3.019531-2.570313-5.101563-5.789063-6.246094-9.253906-2.550781 7.707031-.472656 16.625 6.246094 22.34375 10.796875 9.1875 25.972656 20.46875 42.804687 28.074219 22.894532 10.347656 45.546876 13.941406 59.128907 15.179687 4.660156.425781 7.242187-5.28125 3.84375-8.5-1.542969-1.457031-3.277344-3.046875-5.183594-4.722656zm0 0" fill="#00b142"/><path d="m446.492188 365.824219c-24.3125-6.375-47.25-6.121094-60.847657-5.074219-4.667969.363281-6.253906 6.417969-2.367187 9.019531 11.332031 7.585938 31.199218 19.0625 55.507812 25.4375s47.242188 6.125 60.84375 5.074219c4.667969-.359375 6.253906-6.417969 2.363282-9.023438-11.332032-7.585937-31.195313-19.058593-55.5-25.433593zm0 0" fill="#00d642"/><path d="m501.996094 391.261719c-3.800782-2.546875-8.578125-5.527344-14.140625-8.605469-.1875.03125-.367188.070312-.5625.085938-13.597657 1.050781-36.535157 1.300781-60.84375-5.074219-16.15625-4.234375-30.332031-10.722657-41.363281-16.828125-4.222657.78125-5.535157 6.433594-1.808594 8.929687 11.332031 7.585938 31.199218 19.0625 55.507812 25.4375s47.242188 6.125 60.84375 5.074219c4.667969-.359375 6.253906-6.417969 2.367188-9.019531zm0 0" fill="#00b142"/><path d="m446.488281 366.078125c-24.375 6.121094-47.3125 5.625-60.898437 4.433594-4.660156-.410157-6.183594-6.480469-2.269532-9.042969 11.414063-7.46875 31.394532-18.734375 55.773438-24.851562 24.371094-6.121094 47.304688-5.628907 60.890625-4.433594 4.664063.40625 6.1875 6.480468 2.273437 9.046875-11.414062 7.46875-31.394531 18.730469-55.769531 24.847656zm0 0" fill="#00d642"/><path d="m499.984375 332.183594c-4.203125-.371094-9.304687-.671875-15.0625-.730469-11.558594 7.457031-31.070313 18.253906-54.753906 24.199219-16.832031 4.222656-32.972657 5.292968-45.828125 5.160156-.339844.21875-.695313.445312-1.019532.65625-3.914062 2.5625-2.390624 8.636719 2.269532 9.042969 13.585937 1.195312 36.523437 1.6875 60.902344-4.429688 24.371093-6.121093 44.351562-17.382812 55.765624-24.851562 3.914063-2.5625 2.390626-8.636719-2.273437-9.046875zm0 0" fill="#00b142"/><path d="m298.605469 103.199219c-2.472657 0-4.929688-.773438-7.03125-2.300781-3.714844-2.699219-5.542969-7.191407-4.765625-11.71875l1.914062-11.140626-8.097656-7.886718c-3.289062-3.207032-4.449219-7.914063-3.03125-12.28125 1.421875-4.367188 5.125-7.492188 9.671875-8.152344l11.1875-1.628906 5-10.136719c2.035156-4.117187 6.148437-6.675781 10.742187-6.675781s8.710938 2.558594 10.746094 6.675781l5 10.136719 11.1875 1.628906c4.546875.660156 8.253906 3.785156 9.671875 8.152344 1.417969 4.367187.257813 9.074218-3.03125 12.28125l-8.09375 7.890625 1.910157 11.140625c.777343 4.527344-1.050782 9.015625-4.765626 11.714844-3.714843 2.703124-8.550781 3.050781-12.617187.914062l-10.003906-5.261719-10.007813 5.261719c-1.769531.929688-3.683594 1.386719-5.585937 1.386719zm15.589843-22.039063c1.914063 0 3.828126.457032 5.574219 1.375l5.996094 3.152344-1.144531-6.675781c-.667969-3.890625.621094-7.851563 3.445312-10.605469l4.847656-4.726562-6.703124-.972657c-3.902344-.566406-7.273438-3.015625-9.019532-6.554687l-2.996094-6.074219-2.996093 6.074219c-1.746094 3.535156-5.117188 5.988281-9.023438 6.554687l-6.699219.972657 4.851563 4.726562c2.824219 2.753906 4.109375 6.71875 3.445313 10.605469l-1.148438 6.675781 5.996094-3.152344c1.746094-.917968 3.660156-1.375 5.574218-1.375zm16.449219-31.644531h.011719zm-19.15625-4.921875c.003907 0 .003907.003906.003907.007812zm0 0"/><path d="m268.410156 362.367188c-2.070312-3.589844-6.660156-4.820313-10.246094-2.746094l-14.792968 8.539062c-2.320313 1.339844-3.746094 3.816406-3.746094 6.496094s1.429688 5.15625 3.75 6.496094l14.789062 8.539062c1.183594.679688 2.472657 1.003906 3.746094 1.003906 2.589844 0 5.113282-1.34375 6.5-3.75 2.070313-3.585937.84375-8.171874-2.746094-10.246093l-3.539062-2.042969 3.539062-2.046875c3.585938-2.070313 4.816407-6.65625 2.746094-10.242187zm0 0"/><path d="m228.476562 323.792969c-2.070312-3.585938-6.65625-4.8125-10.246093-2.742188l-14.789063 8.539063c-2.320312 1.339844-3.75 3.816406-3.75 6.496094 0 2.679687 1.429688 5.152343 3.75 6.492187l14.792969 8.542969c1.179687.679687 2.46875 1.003906 3.742187 1.003906 2.589844 0 5.113282-1.34375 6.5-3.75 2.070313-3.585938.84375-8.175781-2.742187-10.246094l-3.542969-2.042968 3.542969-2.046876c3.585937-2.070312 4.8125-6.65625 2.742187-10.246093zm0 0"/><path d="m304.347656 323.792969c-2.070312-3.585938-6.65625-4.8125-10.242187-2.742188l-14.792969 8.539063c-2.320312 1.339844-3.75 3.816406-3.75 6.496094 0 2.679687 1.429688 5.152343 3.75 6.492187l14.792969 8.542969c1.179687.679687 2.46875 1.003906 3.742187 1.003906 2.59375 0 5.113282-1.34375 6.503906-3.75 2.070313-3.585938.839844-8.175781-2.746093-10.246094l-3.542969-2.042968 3.542969-2.046876c3.585937-2.070312 4.8125-6.65625 2.742187-10.246093zm0 0"/><path d="m506.167969 385.027344c-8.589844-5.75-20.746094-12.910156-35.457031-18.949219 14.75-5.875 26.976562-12.898437 35.652343-18.574219 4.5-2.941406 6.558594-8.214844 5.25-13.429687-1.308593-5.21875-5.617187-8.894531-10.972656-9.363281-8.378906-.734376-19.238281-1.140626-31.460937-.316407 1.332031-1.199219 2.542968-2.320312 3.621093-3.339843 3.902344-3.695313 4.992188-9.25 2.777344-14.148438-2.214844-4.902344-7.109375-7.757812-12.457031-7.265625-15.183594 1.386719-38.183594 5.253906-61.542969 15.816406-7 3.160157-13.894531 6.867188-20.652344 11.078125-2.171875-3.984375-4.640625-7.746094-7.382812-11.261718 38.375-8.972657 70.992187-26.722657 94.925781-51.789063 28.472656-29.828125 43.523438-69.15625 43.523438-113.742187 0-37.1875-10.347657-68.175782-30.757813-92.101563-2.6875-3.152344-7.421875-3.527344-10.574219-.839844s-3.527344 7.421875-.839844 10.574219c18.03125 21.136719 27.171876 48.851562 27.171876 82.367188 0 78.484374-51.925782 136.761718-135.792969 152.828124-14.425781-11.945312-32.820313-18.839843-52.398438-18.839843-8.804687 0-31.15625 3.214843-60.671875 8.296875 7.671875-13.496094 16.648438-26.230469 26.816406-38.035156 8.289063 4.402343 17.0625 7.3125 25.898438 8.484374 2.945312.390626 5.84375.585938 8.671875.585938 14.269531 0 26.910156-4.914062 36.214844-14.21875 11.148437-11.148438 15.988281-27.089844 13.628906-44.882812-2.261719-17.050782-10.949219-33.886719-24.464844-47.398438-19.167969-19.167969-44.476562-28.222656-66.671875-24.023438-17.25-27.835937-50.816406-45.019531-88.300781-45.019531-13.28125 0-26.0625 2.167969-37.808594 6.1875 28.371094-64.554687 107.894531-78.707031 172.082031-78.707031 55.730469 0 99.753907 10.34375 130.847657 30.746094 3.460937 2.269531 8.113281 1.304687 10.382812-2.160156 2.273438-3.460938 1.308594-8.109376-2.15625-10.382813-33.578125-22.03125-80.371093-33.203125-139.074219-33.203125-49.054687 0-90.035156 7.875-121.8125 23.40625-35.515624 17.359375-58.867187 43.953125-69.464843 79.078125-12.898438 7.570313-23.6875 17.773437-31.296875 30.054687-6.859375-1.292968-14.117188-1.316406-21.617188-.0625-4.085937.679688-6.84375 4.546876-6.160156 8.628907.679688 4.085937 4.550781 6.847656 8.632812 6.164062 6.433594-1.074219 12.550782-.941406 18.183594.394531 4.996094 1.1875 10.074219-.988281 12.625-5.410156 13.929688-24.136718 44.007813-39.734375 76.636719-39.734375 32.625 0 62.707031 15.597657 76.636719 39.734375 2.550781 4.421875 7.625 6.597656 12.625 5.410156 17.480468-4.144531 39.109375 3.511719 55.105468 19.503907 11.195313 11.195312 18.371094 24.964843 20.199219 38.765625 1.734375 13.0625-1.59375 24.535156-9.367187 32.308594-7.773438 7.769531-19.25 11.09375-32.304688 9.367187-8.59375-1.140625-17.171875-4.351563-25.125-9.316406-.1875-.128907-.375-.253907-.570312-.367188-4.464844-2.84375-8.722656-6.238281-12.671875-10.132812-.402344-.53125-.863281-.996094-1.367188-1.386719-1.800781-1.867188-3.539062-3.863281-5.171875-5.953125-1.910156-2.449219-4.78125-4.027344-7.878906-4.335937-3.136719-.308594-6.304688.695312-8.699219 2.757812-16.171875 13.921875-37.980469 21.585938-61.410156 21.585938-23.425781 0-45.234375-7.664063-61.410156-21.585938-2.394531-2.0625-5.5625-3.066406-8.699219-2.757812-3.097656.308593-5.96875 1.886718-7.878906 4.335937-1.925782 2.464844-3.988282 4.804687-6.136719 6.953125-11.199219 11.199219-24.964844 18.371094-38.765625 20.203125-13.0625 1.730469-24.535156-1.597656-32.308594-9.367187-16.605468-16.609376-11.746094-48.492188 10.835938-71.074219 2.488281-2.488281 5.148437-4.8125 7.90625-6.914063 3.296875-2.507812 3.9375-7.210937 1.429687-10.507812-2.511719-3.296875-7.214843-3.9375-10.511719-1.429688-3.292968 2.507813-6.46875 5.28125-9.433593 8.246094-28.429688 28.429688-33.289063 69.828125-10.832031 92.285156 11.152343 11.148438 27.089843 15.992188 44.882812 13.628906 7.945312-1.050781 15.832031-3.515624 23.367188-7.195312 15.667968 18.445312 28.320312 38.953125 37.742187 61.113281-34.121094 6.921875-67.78125 14.027344-96.21875 20.304688-14.015625 3.097656-23.433594 14.820312-23.433594 29.175781 0 14.351562 9.417969 26.074219 23.433594 29.171875 97.792969 21.597656 257.398437 52.972656 284.910156 52.972656 13.585938 0 27.054688-3.390625 38.941407-9.800781 3.644531-1.964844 5.007812-6.515625 3.039062-10.160156-1.964844-3.644532-6.511719-5.007813-10.160156-3.042969-9.707032 5.234375-20.710938 8.003906-31.820313 8.003906-24.058593 0-173.765625-28.785156-281.671875-52.621093-8.605468-1.898438-11.671875-8.75-11.671875-14.523438 0-5.777344 3.066407-12.628906 11.671875-14.527344 32.566406-7.195312 68.945313-14.839844 104.523438-22.007812.148437-.023438.296875-.054688.449218-.089844 9.484376-1.910156 18.914063-3.785156 28.195313-5.609375.050781-.007813.097656-.019531.144531-.027344 71.035156-13.960937 133.539063-24.882812 148.359375-24.882812 16.875 0 32.671875 6.265625 44.730469 17.023437.238281.253906.488281.488282.757812.703125 5.683594 5.230469 10.5 11.472657 14.15625 18.542969-3.863281 2.847656-7.675781 5.863281-11.421874 9.046875-6.332032 5.382813-9.964844 13.234375-9.964844 21.535156 0 8.292969 3.621094 16.132813 9.941406 21.511719 3.316406 2.824219 7.234375 6 11.617188 9.277344-1.222657 2.390625-2.574219 4.722656-4.074219 6.953125-2.3125 3.433593-1.402344 8.09375 2.03125 10.410156 1.285156.863281 2.742187 1.277344 4.179687 1.277344 2.414063 0 4.78125-1.160157 6.230469-3.3125 1.457031-2.164063 2.800781-4.40625 4.042969-6.703125 6.375 4.09375 13.296875 8.019531 20.546875 11.296875 23.359375 10.558593 46.355469 14.425781 61.535156 15.8125.394531.039062.792969.054687 1.183594.054687 4.882812 0 9.226562-2.78125 11.277343-7.320312 2.214844-4.898438 1.121094-10.453125-2.785156-14.148438-.933594-.886718-1.976562-1.851562-3.105468-2.871094 5.210937.378907 10.175781.539063 14.789062.539063 5.859375 0 11.164062-.25 15.734375-.601563 5.359375-.414062 9.703125-4.042968 11.070313-9.246093 1.367187-5.199219-.640626-10.492188-5.105469-13.484375zm-289.5-135.425782c6.1875-2.066406 12.109375-4.671874 17.710937-7.765624-6.929687 6.363281-13.265625 13.25-18.90625 20.570312.121094-4.3125.527344-8.59375 1.195313-12.804688zm-15.632813 3.964844c-.492187 4.835938-.6875 9.722656-.5625 14.625.148438 5.898438.777344 11.898438 1.863282 17.828125.570312 3.109375 3.03125 5.527344 6.148437 6.046875.414063.066406.824219.101563 1.230469.101563 2.683594 0 5.199218-1.441407 6.539062-3.832031 9.964844-17.777344 24.246094-33.675782 41.5-46.296876 1.464844 1.296876 2.964844 2.535157 4.492188 3.722657-12.890625 15.207031-23.933594 31.839843-32.917969 49.578125-19.515625 3.503906-41.183594 7.597656-63.609375 11.972656-1.980469-19.230469-5.566406-37.484375-10.71875-54.496094 8.039062 1.734375 16.390625 2.644532 24.921875 2.644532 7.195313 0 14.253906-.65625 21.113281-1.894532zm-89.574218-21.058594c7.785156 6.21875 16.566406 11.238282 26.019531 14.996094 3.203125 9.140625 5.929687 18.878906 8.148437 29.019532-10.019531-14.984376-22.710937-28.484376-37.726562-40.070313 1.210937-1.277344 2.410156-2.582031 3.558594-3.945313zm-16.09375 14.941407c.375-.273438.746093-.554688 1.117187-.832031 23.148437 17.253906 40.429687 39.3125 50.472656 64.390624-3.941406.78125-7.890625 1.570313-11.84375 2.359376-9.820312-23.894532-23.160156-46.007813-39.746093-65.917969zm396.097656 91.679687c-11.699219 6.976563-27.882813 14.929688-46.800782 19.675782-18.917968 4.75-36.9375 5.382812-50.546874 4.761718 11.703124-6.976562 27.886718-14.929687 46.800781-19.675781 18.921875-4.75 36.941406-5.382813 50.546875-4.761719zm-34.839844 77.15625c-13.5-1.804687-31.105469-5.628906-48.871094-13.660156-16.503906-7.460938-31.421875-18.773438-41.03125-26.953125-2.964844-2.523437-4.664062-6.199219-4.664062-10.085937 0-3.894532 1.707031-7.582032 4.683594-10.109376 8.949218-7.609374 23.324218-18.355468 41.011718-26.351562 17.769532-8.035156 35.382813-11.855469 48.882813-13.664062-4.625 4.015624-10.503907 8.722656-17.351563 13.40625-.671875.160156-1.34375.304687-2.015625.472656-24.867187 6.242187-45.296875 17.503906-58.054687 25.855468-4.496094 2.941407-6.558594 8.214844-5.25 13.429688.699218 2.777344 2.253906 5.113281 4.359375 6.765625.246093.214844.503906.425781.78125.609375 12.667969 8.484375 32.976562 19.960938 57.777343 26.464844.933594.242187 1.867188.476562 2.792969.703125 6.675781 4.585937 12.414063 9.183593 16.949219 13.117187zm-11.515625-27.25c-.488281-.167968-.988281-.285156-1.492187-.351562-.972657-.234375-1.949219-.472656-2.929688-.730469-9.640625-2.527344-18.542969-5.886719-26.511719-9.511719 10.105469-.566406 21.214844-1.96875 32.683594-4.738281 17.902344 4.992187 33.1875 12.746094 44.320313 19.542969-12.542969.445312-28.824219-.230469-46.070313-4.210938zm0 0"/></svg>