<?xml version="1.0" encoding="utf-8"?>
<!-- Generator: Adobe Illustrator 19.1.0, SVG Export Plug-In . SVG Version: 6.00 Build 0)  -->
<svg version="1.1" id="Calque_1" xmlns="http://www.w3.org/2000/svg" xmlns:xlink="http://www.w3.org/1999/xlink" x="0px" y="0px"
	 viewBox="-285 408 23.2 26.9" style="enable-background:new -285 408 23.2 26.9;" xml:space="preserve">
<title>Primeur</title>
<path d="M-267.5,432.8C-267.5,432.8-267.5,432.8-267.5,432.8c-1.6,0-2-0.3-2.4-0.7c-0.2-0.1-0.2-0.2-0.5-0.2c-0.3,0-0.4,0-0.5,0.2
	c-0.4,0.3-0.9,0.6-2.4,0.6c-3,0-5.4-5.6-5.4-9c0-2,0.7-3.8,2-5c0.9-0.9,2-1.4,3.2-1.3c1.7,0,2.4,0.4,2.8,0.7
	c0.2,0.1,0.3,0.2,0.5,0.2c0.2,0,0.2,0,0.5-0.2c0.5-0.3,1.2-0.7,2.9-0.6c2.9,0.1,5.1,3,5,6.5C-261.9,427.3-264.6,432.8-267.5,432.8z
	 M-270.4,430.9c0.7,0,0.9,0.2,1.2,0.5c0.2,0.2,0.4,0.4,1.7,0.4c2.1,0,4.6-4.7,4.7-7.8c0.1-2.9-1.8-5.4-4-5.5c-1.5-0.1-2,0.2-2.4,0.5
	c-0.3,0.2-0.5,0.3-1,0.3c-0.4,0-0.7-0.2-1-0.3c-0.4-0.2-0.9-0.5-2.3-0.6c-0.9,0-1.8,0.3-2.5,1.1c-1,1-1.6,2.5-1.7,4.2
	c0,3.2,2.3,7.9,4.4,8c1.3,0,1.5-0.2,1.7-0.3C-271.4,431.1-271.1,430.9-270.4,430.9z"/>
<path d="M-270.2,419.3c-0.3,0-0.5-0.2-0.5-0.5v-1.7c0-0.3-0.1-0.6-0.3-0.8c-0.2-0.2-0.5-0.4-0.8-0.4h-1.7c-0.3,0-0.5-0.2-0.5-0.5
	s0.2-0.5,0.5-0.5h1.7c0.6,0,1.1,0.2,1.5,0.7s0.6,1,0.6,1.6v1.7C-269.7,419.1-269.9,419.3-270.2,419.3z"/>
<path d="M-268.5,417.2C-268.5,417.2-268.5,417.2-268.5,417.2c-0.3,0-0.6-0.2-0.6-0.5c0-1.1,0.5-2.2,1.3-3c0.8-0.8,1.9-1.2,3-1.2
	c0.3,0,0.5,0.2,0.5,0.5c0,1.1-0.5,2.2-1.3,3C-266.3,416.8-267.4,417.2-268.5,417.2z M-265.2,413.5c-0.7,0.1-1.3,0.4-1.8,0.9
	c-0.5,0.5-0.8,1.1-0.9,1.8c0.7-0.1,1.3-0.4,1.8-0.9C-265.7,414.8-265.4,414.2-265.2,413.5z"/>
<path d="M-276.3,434.9c-0.7,0-1.3-0.4-1.6-1.1l-6.3-17.1c-0.3-0.9,0.1-1.9,1-2.3c1.8-0.9,3.9-1.3,5.9-1.2c1,0,1.7,0.8,1.8,1.8
	l0.2,3.7l-1,0.1l-0.2-3.7c0-0.4-0.4-0.8-0.8-0.8c-1.9-0.1-3.7,0.3-5.4,1.1c-0.4,0.2-0.6,0.7-0.5,1.1l6.3,17.1
	c0.1,0.3,0.4,0.5,0.7,0.5c0.2,0,0.3-0.1,0.5-0.2c0.1-0.1,0.2-0.3,0.2-0.5l-0.1-1.8l1-0.1l0.1,1.8c0,0.4-0.1,0.9-0.4,1.2
	c-0.3,0.3-0.7,0.5-1.2,0.6C-276.2,434.9-276.2,434.9-276.3,434.9z"/>
<path d="M-280.3,426.2c-0.2,0-0.5-0.2-0.5-0.4c0-0.3,0.1-0.5,0.4-0.6l1-0.2c0.3,0,0.5,0.1,0.6,0.4c0,0.3-0.1,0.5-0.4,0.6
	L-280.3,426.2C-280.3,426.2-280.3,426.2-280.3,426.2z M-281.9,421.9c-0.2,0-0.4-0.2-0.5-0.4c-0.1-0.3,0.1-0.5,0.4-0.6l2.8-0.6
	c0.3-0.1,0.5,0.1,0.6,0.4s-0.1,0.5-0.4,0.6L-281.9,421.9C-281.8,421.9-281.9,421.9-281.9,421.9z M-280,417.9c-0.2,0-0.4-0.2-0.5-0.4
	c-0.1-0.3,0.1-0.5,0.4-0.6l3.9-0.8c0.3-0.1,0.5,0.1,0.6,0.4s-0.1,0.5-0.4,0.6l-3.9,0.8C-279.9,417.9-279.9,417.9-280,417.9z
	 M-281.9,414.8c-0.2,0-0.3-0.1-0.4-0.2l-2.6-3.6c-0.2-0.2-0.1-0.5,0.1-0.7c0.2-0.2,0.5-0.1,0.7,0.1l2.6,3.6c0.2,0.2,0.1,0.5-0.1,0.7
	C-281.7,414.8-281.8,414.8-281.9,414.8z M-280.3,414.4c-0.2,0-0.4-0.2-0.5-0.4l-1.1-5.4c-0.1-0.3,0.1-0.5,0.4-0.6
	c0.3-0.1,0.5,0.1,0.6,0.4l1.1,5.4C-279.7,414.1-279.9,414.4-280.3,414.4C-280.2,414.4-280.2,414.4-280.3,414.4z M-278.5,414.1
	c0,0-0.1,0-0.1,0c-0.3-0.1-0.4-0.3-0.4-0.6l1-4.3c0.1-0.3,0.3-0.4,0.6-0.4c0.3,0.1,0.4,0.3,0.4,0.6l-1,4.3
	C-278.1,414-278.3,414.1-278.5,414.1z"/>
</svg>
