<?xml version="1.0" encoding="utf-8"?>
<!-- Generator: Adobe Illustrator 19.1.0, SVG Export Plug-In . SVG Version: 6.00 Build 0)  -->
<svg version="1.1" id="Calque_1" xmlns="http://www.w3.org/2000/svg" xmlns:xlink="http://www.w3.org/1999/xlink" x="0px" y="0px"
	 viewBox="-284 413.7 25.4 14.2" style="enable-background:new -284 413.7 25.4 14.2;" xml:space="preserve">
<style type="text/css">
	.st0{fill:#1D1D1B;}
</style>
<title>production_primaire</title>
<path class="st0" d="M-264.1,424.5h-1.6c-0.3,0-0.5-0.2-0.5-0.5s0.2-0.5,0.5-0.5h1.6c0.3,0,0.5,0.2,0.5,0.5
	S-263.8,424.5-264.1,424.5z M-270.5,424.5h-1.6c-0.3,0-0.5-0.2-0.5-0.5s0.2-0.5,0.5-0.5h1.6c0.3,0,0.5,0.2,0.5,0.5
	S-270.2,424.5-270.5,424.5z M-276.8,424.5h-1.6c-0.3,0-0.5-0.2-0.5-0.5s0.2-0.5,0.5-0.5h1.6c0.3,0,0.5,0.2,0.5,0.5
	S-276.6,424.5-276.8,424.5z M-264.1,421.3h-1.6c-0.3,0-0.5-0.2-0.5-0.5s0.2-0.5,0.5-0.5h1.6c0.3,0,0.5,0.2,0.5,0.5
	S-263.8,421.3-264.1,421.3z M-270.5,421.3h-1.6c-0.3,0-0.5-0.2-0.5-0.5s0.2-0.5,0.5-0.5h1.6c0.3,0,0.5,0.2,0.5,0.5
	S-270.2,421.3-270.5,421.3z M-276.8,421.3h-1.6c-0.3,0-0.5-0.2-0.5-0.5s0.2-0.5,0.5-0.5h1.6c0.3,0,0.5,0.2,0.5,0.5
	S-276.6,421.3-276.8,421.3z"/>
<path class="st0" d="M-259.1,427.9h-24.4c-0.3,0-0.5-0.2-0.5-0.5v-9.5c0-0.2,0.1-0.3,0.2-0.4l6.1-3.7c0.2-0.1,0.3-0.1,0.5,0
	c0.2,0.1,0.3,0.3,0.3,0.4v2.8l4.8-3.2c0.2-0.1,0.4-0.1,0.5,0c0.2,0.1,0.3,0.3,0.3,0.4v2.8l5.6-3.2c0.2-0.1,0.3-0.1,0.5,0
	c0.2,0.1,0.2,0.3,0.2,0.4v2.8l5.6-3.3c0.2-0.1,0.3-0.1,0.5,0c0.2,0.1,0.3,0.3,0.3,0.4v13.2C-258.6,427.7-258.8,427.9-259.1,427.9z
	 M-283,426.9h23.4v-11.8l-5.6,3.3c-0.2,0.1-0.3,0.1-0.5,0c-0.2-0.1-0.3-0.3-0.3-0.4v-2.8l-5.6,3.2c-0.2,0.1-0.3,0.1-0.5,0
	c-0.2-0.1-0.2-0.3-0.2-0.4v-2.8l-4.8,3.2c-0.2,0.1-0.4,0.1-0.5,0c-0.2-0.1-0.3-0.3-0.3-0.4v-2.8l-5.1,3.1V426.9z"/>
</svg>
