<?xml version="1.0" encoding="utf-8"?>
<!-- Generator: Adobe Illustrator 19.1.0, SVG Export Plug-In . SVG Version: 6.00 Build 0)  -->
<svg version="1.1" id="Calque_1" xmlns="http://www.w3.org/2000/svg" xmlns:xlink="http://www.w3.org/1999/xlink" x="0px" y="0px"
	 viewBox="-282 408.4 29.6 24.5" style="enable-background:new -282 408.4 29.6 24.5;" xml:space="preserve">
<title>restaurant</title>
<path d="M-255.9,432.4c-0.3,0-0.5-0.2-0.5-0.5v-23c0-0.3,0.2-0.5,0.5-0.5s0.5,0.2,0.5,0.5v23C-255.4,432.2-255.7,432.4-255.9,432.4z
	"/>
<path d="M-252.9,424.4h-3c-0.3,0-0.5-0.2-0.5-0.5s0.2-0.5,0.5-0.5h2.5c-0.1-8.2-1.8-13.8-2.5-14c-0.3,0-0.5-0.2-0.5-0.5
	c0-0.3,0.2-0.5,0.5-0.5c2.3,0,3.5,9.2,3.5,15.5C-252.4,424.2-252.7,424.4-252.9,424.4z"/>
<path d="M-278.9,417.4c-0.2,0-0.3,0-0.5,0c-1.7-0.3-2.8-1.9-2.6-3.6l0-4.9c0-0.3,0.2-0.5,0.5-0.5s0.5,0.2,0.5,0.5v5
	c-0.1,0.6,0,1.2,0.4,1.6c0.3,0.5,0.8,0.8,1.4,0.8c1.1,0.2,2.2-0.6,2.4-1.7c0-0.2,0-0.5,0-0.7l0-5.1c0-0.3,0.2-0.5,0.5-0.5
	s0.5,0.2,0.5,0.5v5c0,0.3,0,0.6,0,0.9C-276.1,416.4-277.4,417.4-278.9,417.4z"/>
<path d="M-278.9,432.4c-0.3,0-0.5-0.2-0.5-0.5v-15c0-0.3,0.2-0.5,0.5-0.5s0.5,0.2,0.5,0.5v15C-278.4,432.2-278.7,432.4-278.9,432.4z
	"/>
<path d="M-279.7,414.5c-0.3,0-0.5-0.2-0.5-0.5v-5.1c0-0.3,0.2-0.5,0.5-0.5s0.5,0.2,0.5,0.5v5.1
	C-279.2,414.3-279.4,414.5-279.7,414.5z"/>
<path d="M-278.2,414.5c-0.3,0-0.5-0.2-0.5-0.5v-5.1c0-0.3,0.2-0.5,0.5-0.5s0.5,0.2,0.5,0.5v5.1
	C-277.7,414.3-277.9,414.5-278.2,414.5z"/>
<path d="M-267.3,432.9c-5,0-9-4-9-9c0-5,4-9,9-9c5,0,9,4,9,9C-258.3,428.9-262.3,432.9-267.3,432.9z M-267.3,415.9c-4.4,0-8,3.6-8,8
	s3.6,8,8,8s8-3.6,8-8S-262.9,415.9-267.3,415.9z"/>
<path d="M-267.3,430.9c-3.9,0-7-3.1-7-7c0-3.9,3.1-7,7-7c3.9,0,7,3.1,7,7C-260.3,427.8-263.4,430.9-267.3,430.9z M-267.3,417.9
	c-3.3,0-6,2.7-6,6s2.7,6,6,6s6-2.7,6-6S-264,417.9-267.3,417.9z"/>
</svg>
