<?xml version="1.0" encoding="utf-8"?>
<!-- Generator: Adobe Illustrator 19.1.0, SVG Export Plug-In . SVG Version: 6.00 Build 0)  -->
<svg version="1.1" id="Calque_1" xmlns="http://www.w3.org/2000/svg" xmlns:xlink="http://www.w3.org/1999/xlink" x="0px" y="0px"
	 viewBox="-288 408.9 18.5 24" style="enable-background:new -288 408.9 18.5 24;" xml:space="preserve">
<style type="text/css">
	.st0{fill:#1D1D1B;}
</style>
<title>Fichier 1</title>
<g id="Calque_2">
	<g id="Calque_1-2">
		<path class="st0" d="M-276,432.9c-3.6,0-6.5-2.9-6.5-6.5c0-0.3,0.2-0.5,0.5-0.5s0.5,0.2,0.5,0.5c0,3,2.5,5.5,5.5,5.5
			c3,0,5.5-2.5,5.5-5.5c0-0.3,0.2-0.5,0.5-0.5s0.5,0.2,0.5,0.5C-269.5,430-272.4,432.9-276,432.9z"/>
		<path class="st0" d="M-276,429.4c-3.7,0-6.5-1.3-6.5-3s2.8-3,6.5-3c3.7,0,6.5,1.3,6.5,3S-272.3,429.4-276,429.4z M-276,424.4
			c-3.1,0-5.5,1.1-5.5,2s2.4,2,5.5,2c3.1,0,5.5-1.1,5.5-2S-272.9,424.4-276,424.4z"/>
		<path class="st0" d="M-282,427.4c-0.3,0-0.5-0.2-0.5-0.5v-12c0-2.8-2.2-5-5-5c-0.3,0-0.5-0.2-0.5-0.5s0.2-0.5,0.5-0.5
			c3.3,0,6,2.7,6,6v12C-281.5,427.2-281.7,427.4-282,427.4z M-273.5,420.8c-0.1,0-0.3-0.1-0.4-0.2c-0.2-0.2-0.2-0.5,0-0.7
			c0.5-0.5,0.4-0.7,0-1.3c-0.4-0.6-1.1-1.5,0-2.7c0.2-0.2,0.5-0.2,0.7,0s0.2,0.5,0,0.7c-0.6,0.6-0.4,0.8,0,1.4
			c0.4,0.6,1.1,1.5-0.1,2.6C-273.3,420.8-273.4,420.8-273.5,420.8z M-277.5,420.8c-0.1,0-0.3-0.1-0.4-0.2c-0.2-0.2-0.2-0.5,0-0.7
			c0.5-0.5,0.4-0.7,0-1.3c-0.4-0.6-1.1-1.5,0-2.7c0.2-0.2,0.5-0.2,0.7,0s0.2,0.5,0,0.7c-0.6,0.6-0.4,0.8,0,1.4
			c0.4,0.6,1.1,1.5-0.1,2.6C-277.3,420.8-277.4,420.8-277.5,420.8z"/>
	</g>
</g>
</svg>
