<svg height="512" viewBox="0 0 128 128" width="512" xmlns="http://www.w3.org/2000/svg"><g><g><path d="m6.5 81.562v11.5c0 13.14 12.2 25.23 26.69 27.54 22.94 3.67 53.52-3.56 76.29-27.69 6.82-7.24 11.58-20.96 11.99-34.7l.03-10.71-84.792 38.438z" fill="#d8442b"/><path d="m91.626 6.617c-31.521-2.459-26.948 34.505-47.343 44.883-17.147 8.722-37.783 6.643-37.783 30.062 0 13.138 12.2 25.228 26.691 27.538 22.943 3.664 53.52-3.56 76.287-27.7 16.328-17.3 20.855-71.764-17.852-74.783z" fill="#fc6243"/><path d="m97.375 16.875c-9.125-3.625-18.323-.922-22.966 9.2-4.764 10.381 6.2 12.695.236 23.822s-4.8 25.4 9.5 25.026c10.489-.277 21.64-4.036 26.119-15.366 7.356-18.603-.999-37.957-12.889-42.682z" fill="#d8442b"/><circle cx="92.124" cy="29.955" fill="#efeffb" r="6"/><g fill="#d8442b"><path d="m50.729 76.374c.577-3.106.8-8.322-8.952-11.628a18.5 18.5 0 0 0 -22.835 11.472c-3.831 11.039 8.458 22.818 16.149 12.792 5.451-7.102 14.617-7.131 15.638-12.636z"/><path d="m59.755 83.147c-4.107 5.536-12.8 6.874-12.945 10.7-.082 2.162.489 5.684 10.239 6.493 8.542.709 18.194-3.921 19.95-10.961 1.98-7.933-11.445-14.047-17.244-6.232z"/></g></g><g fill="#1b1e40"><path d="m123.2 45.537a53.161 53.161 0 0 0 -3.2-19.737c-3.4-8.808-11.056-19.588-28.229-20.928-10.5-.812-18.2 2.389-24.243 10.093a1.75 1.75 0 0 0 2.755 2.158c5.317-6.788 11.861-9.494 21.207-8.761 15.355 1.2 22.2 10.829 25.236 18.7 6.916 17.917 1.2 42.835-8.521 53.146-23.636 25.058-54.1 30.466-74.738 27.168-13.9-2.22-25.217-13.8-25.217-25.813 0-15.803 9.863-18.963 22.35-22.963a95.83 95.83 0 0 0 14.476-5.538c7.924-4.037 12.174-11.624 15.843-19.048a1.75 1.75 0 1 0 -3.137-1.551c-3.409 6.9-7.322 13.93-14.292 17.475a93.05 93.05 0 0 1 -13.957 5.325c-12.744 4.084-24.782 7.944-24.783 26.296v11.5c0 13.663 12.635 26.793 28.164 29.267a75.52 75.52 0 0 0 11.94.931 87.2 87.2 0 0 0 24.608-3.643 1.75 1.75 0 1 0 -.992-3.357 79.939 79.939 0 0 1 -35 2.613c-13.5-2.15-24.551-13.122-25.189-24.753a35.271 35.271 0 0 0 24.635 16.715 75.576 75.576 0 0 0 11.881.912c20.309 0 45.6-7.553 65.953-29.135a40.208 40.208 0 0 0 7.4-12.066c-1.939 8.665-5.5 16.455-9.94 21.166a89.506 89.506 0 0 1 -30.693 21.33 1.75 1.75 0 0 0 1.351 3.229 93.022 93.022 0 0 0 31.886-22.158c7.146-7.589 12.046-21.661 12.466-35.895z"/><path d="m61.755 28.271a1.729 1.729 0 0 0 .776.183 1.751 1.751 0 0 0 1.57-.972c.8-1.606 1.47-2.9 2.12-4.084a1.75 1.75 0 1 0 -3.065-1.689c-.676 1.226-1.371 2.565-2.191 4.217a1.75 1.75 0 0 0 .79 2.345z"/><path d="m48.252 57.922a1.726 1.726 0 0 0 .869-.233 31.657 31.657 0 0 0 7.193-5.68 1.75 1.75 0 1 0 -2.528-2.42 28.285 28.285 0 0 1 -6.406 5.065 1.75 1.75 0 0 0 .872 3.268z"/><path d="m71.649 70.791c1.671 2.709 5.092 5.886 11.944 5.886q.3 0 .6-.009a44.024 44.024 0 0 0 7.815-.881 1.75 1.75 0 0 0 -.714-3.426 40.718 40.718 0 0 1 -7.194.809c-4.49.09-7.675-1.3-9.474-4.216-2.628-4.262-2-11.59 1.56-18.235 3.493-6.519 1.763-10.537.235-14.082-1.282-2.978-2.39-5.55-.424-9.836 3.961-8.625 11.903-11.801 20.732-8.301 11.145 4.428 18.776 23.044 11.911 40.408a20.279 20.279 0 0 1 -8.452 10.06 1.75 1.75 0 1 0 1.825 2.986 23.7 23.7 0 0 0 9.887-11.754c7.711-19.507-.964-39.819-13.874-44.947-10.566-4.2-20.461-.238-25.2 10.093-2.615 5.7-1.018 9.408.391 12.679 1.39 3.227 2.59 6.013-.106 11.045-4.203 7.824-4.773 16.351-1.462 21.721z"/><path d="m92.124 22.205a7.75 7.75 0 1 0 7.75 7.75 7.759 7.759 0 0 0 -7.75-7.75zm0 12a4.25 4.25 0 1 1 4.25-4.25 4.255 4.255 0 0 1 -4.25 4.25z"/><path d="m17.289 75.645c-2.57 7.405 1.336 14.95 6.428 17.7a9.643 9.643 0 0 0 4.591 1.209 10.365 10.365 0 0 0 8.171-4.474c2.388-3.11 5.664-4.78 8.554-6.253 3.462-1.764 6.731-3.43 7.417-7.129 1.2-6.443-2.112-10.892-10.112-13.6a20.19 20.19 0 0 0 -25.049 12.547zm31.72.41c-.355 1.909-2.248 2.958-5.565 4.648-3.062 1.561-6.872 3.5-9.741 7.241-2.381 3.1-5.339 3.925-8.326 2.315-3.831-2.065-6.748-7.8-4.782-13.468a16.906 16.906 0 0 1 15.97-11.124 14.526 14.526 0 0 1 4.65.736c9.017 3.057 8.191 7.511 7.794 9.652z"/><path d="m58.35 82.1c-1.755 2.367-4.6 3.948-7.113 5.343-3.118 1.733-6.064 3.37-6.175 6.338-.186 4.911 3.688 7.626 11.843 8.3q.9.075 1.825.074c8.469 0 18.047-4.658 19.967-12.354 1.056-4.233-1.368-8.556-6.03-10.759-4.441-2.091-10.59-1.96-14.317 3.058zm16.95 6.86c-1.452 5.815-9.909 10.316-18.108 9.64-8.784-.729-8.68-3.5-8.635-4.683.037-1 2.343-2.28 4.378-3.41 2.681-1.49 6.018-3.344 8.224-6.317a7.152 7.152 0 0 1 5.93-2.912 9.661 9.661 0 0 1 4.081.936c2.4 1.133 4.921 3.58 4.13 6.746z"/></g></g></svg>