<?xml version="1.0" encoding="utf-8"?>
<!-- Generator: Adobe Illustrator 19.1.0, SVG Export Plug-In . SVG Version: 6.00 Build 0)  -->
<svg version="1.1" id="Calque_1" xmlns="http://www.w3.org/2000/svg" xmlns:xlink="http://www.w3.org/1999/xlink" x="0px" y="0px"
	 viewBox="-285 410.9 24 21" style="enable-background:new -285 410.9 24 21;" xml:space="preserve">
<title>supermarcher</title>
<path d="M-266,431.9c-1.1,0-2-0.9-2-2s0.9-2,2-2s2,0.9,2,2S-264.9,431.9-266,431.9z M-266,428.9c-0.6,0-1,0.4-1,1s0.4,1,1,1
	s1-0.4,1-1S-265.4,428.9-266,428.9z"/>
<path d="M-277,431.9c-1.1,0-2-0.9-2-2s0.9-2,2-2s2,0.9,2,2S-275.9,431.9-277,431.9z M-277,428.9c-0.6,0-1,0.4-1,1s0.4,1,1,1
	s1-0.4,1-1S-276.4,428.9-277,428.9z"/>
<path d="M-266,428.9h-11c-0.2,0-0.4-0.2-0.5-0.4l-3.9-16.6h-3.1c-0.3,0-0.5-0.2-0.5-0.5s0.2-0.5,0.5-0.5h3.5c0.2,0,0.4,0.2,0.5,0.4
	l1.3,5.6h17.7c0.2,0,0.3,0.1,0.4,0.2c0.1,0.1,0.1,0.3,0.1,0.5l-3,9c-0.1,0.2-0.3,0.3-0.5,0.3h-12.4l0.2,1h10.6
	c0.3,0,0.5,0.2,0.5,0.5S-265.7,428.9-266,428.9z M-277.1,425.9h12.2l2.7-8H-279L-277.1,425.9z"/>
</svg>
