<?xml version="1.0" encoding="utf-8"?>
<!-- Generator: Adobe Illustrator 19.1.0, SVG Export Plug-In . SVG Version: 6.00 Build 0)  -->
<svg version="1.1" id="Calque_1" xmlns="http://www.w3.org/2000/svg" xmlns:xlink="http://www.w3.org/1999/xlink" x="0px" y="0px"
	 viewBox="-287 409 20 23.9" style="enable-background:new -287 409 20 23.9;" xml:space="preserve">
<title>traiteur</title>
<path d="M-271,432.9h-12c-0.3,0-0.5-0.2-0.5-0.5v-13c-0.5-0.1-0.9-0.2-1.4-0.4c-1.9-1-2.7-3.5-1.7-5.4c1-1.8,3.1-2.6,4.9-1.9
	c0.6-1.1,1.5-1.9,2.6-2.4c1.3-0.5,2.7-0.5,4,0c1.1,0.5,2,1.3,2.6,2.4c0.4-0.2,0.9-0.3,1.4-0.3h0c2.2,0,4,1.8,4,4
	c0,2.1-1.6,3.7-3.5,4v8.8c0,0,0,0.1,0,0.1s0,0.1,0,0.1v3.9C-270.5,432.7-270.7,432.9-271,432.9z M-282.5,431.9h11v-3h-11V431.9z
	 M-273.5,427.9h2v-8.9c0-0.1,0.1-0.3,0.1-0.4c0.1-0.1,0.2-0.1,0.4-0.1c1.6,0,3-1.3,3-2.9c0-1.7-1.3-3.1-3-3.1c-0.5,0-1,0.1-1.4,0.4
	c-0.1,0.1-0.3,0.1-0.4,0s-0.2-0.1-0.3-0.3c-0.4-1-1.2-1.9-2.3-2.3c-1-0.4-2.2-0.4-3.2,0c-1,0.4-1.9,1.2-2.3,2.3
	c-0.1,0.1-0.2,0.2-0.3,0.3c-0.1,0-0.3,0-0.4,0c-1.5-0.8-3.3-0.2-4.1,1.2c-0.8,1.5-0.2,3.3,1.2,4.1c0.4,0.2,0.9,0.4,1.4,0.4
	c0.3,0,0.5,0.2,0.5,0.5v8.9h2v-3.5c0-0.3,0.2-0.5,0.5-0.5s0.5,0.2,0.5,0.5v3.5h2v-4.5c0-0.3,0.2-0.5,0.5-0.5s0.5,0.2,0.5,0.5v4.5h2
	v-3.5c0-0.3,0.2-0.5,0.5-0.5s0.5,0.2,0.5,0.5V427.9z"/>
</svg>
