<svg height="511pt" viewBox="0 0 511.99898 511" width="511pt" xmlns="http://www.w3.org/2000/svg"><path d="m145.742188 341.199219h-136.28125l17.035156-93.691407h102.210937zm0 0" fill="#ebe5dd"/><path d="m77.601562 409.339844c-37.632812 0-68.140624-30.507813-68.140624-68.140625h136.28125c0 37.632812-30.507813 68.140625-68.140626 68.140625zm0 0" fill="#ff0c38"/><path d="m69.085938 409.339844h17.035156v68.140625h-17.035156zm0 0" fill="#b30222"/><path d="m77.601562 503.035156h68.140626s8.519531-8.519531-25.550782-17.035156c-34.070312-8.519531-42.589844-17.035156-42.589844-17.035156s-8.515624 8.515625-42.585937 17.035156c-34.070313 8.515625-25.550781 17.035156-25.550781 17.035156zm0 0" fill="#ff0c38"/><path d="m179.8125 281.578125h153.316406v119.246094h-153.316406zm0 0" fill="#ebe5dd"/><path d="m179.8125 400.824219h153.316406v102.210937h-153.316406zm0 0" fill="#4c8e1e"/><path d="m230.917969 9.015625h51.105469v51.105469h-51.105469zm0 0" fill="#ff9811"/><path d="m256.472656 281.578125h76.65625v-40.882813c0-22.667968-10.070312-44.167968-27.484375-58.679687-15.15625-12.628906-16.320312-30.632813-18.5-50.242187l-5.121093-37.582032h17.035156v-34.070312h-85.175782v34.070312h17.035157l-5.121094 37.582032c-2.179687 19.605468-3.34375 37.613281-18.5 50.242187-17.414063 14.511719-27.484375 36.011719-27.484375 58.679687v40.882813zm0 0" fill="#5eac24"/><path d="m384.234375 503.035156h102.210937l10.789063-161.835937h-123.789063zm0 0" fill="#ffd422"/><path d="m367.199219 247.507812 6.246093 93.691407h123.789063l6.246094-93.691407zm0 0" fill="#e3ddd5"/><g fill="#fff"><path d="m213.882812 247.527344-17.035156-.019532c0-.777343.109375-19.261718 9.417969-37.878906 9.671875-19.351562 28.5625-28.964844 29.359375-29.363281l7.621094 15.238281-3.8125-7.617187 3.835937 7.605469c-.140625.070312-14.691406 7.597656-21.769531 21.753906-7.449219 14.898437-7.617188 30.132812-7.617188 30.28125zm0 0"/><path d="m196.265625 265.546875h17.035156v17.035156h-17.035156zm0 0"/><path d="m77.601562 392.304688c-23.480468 0-42.585937-19.105469-42.585937-42.585938h17.035156c0 14.089844 11.460938 25.550781 25.550781 25.550781zm0 0"/><path d="m35.015625 307.132812h17.035156v17.03125h-17.035156zm0 0"/><path d="m392.773438 359.023438 16.96875-1.542969 8.515624 93.695312-16.96875 1.539063zm0 0"/><path d="m401.269531 468.964844h17.035157v17.035156h-17.035157zm0 0"/><path d="m213.882812 247.527344-17.035156-.019532c0-.777343.109375-19.261718 9.417969-37.878906 9.671875-19.351562 28.5625-28.964844 29.359375-29.363281l7.621094 15.238281-3.8125-7.617187 3.835937 7.605469c-.140625.070312-14.691406 7.597656-21.769531 21.753906-7.449219 14.898437-7.617188 30.132812-7.617188 30.28125zm0 0"/><path d="m196.265625 265.546875h17.035156v17.035156h-17.035156zm0 0"/><path d="m77.601562 392.304688c-23.480468 0-42.585937-19.105469-42.585937-42.585938h17.035156c0 14.089844 11.460938 25.550781 25.550781 25.550781zm0 0"/><path d="m35.015625 307.132812h17.035156v17.03125h-17.035156zm0 0"/><path d="m392.773438 359.023438 16.96875-1.542969 8.515624 93.695312-16.96875 1.539063zm0 0"/><path d="m401.269531 468.964844h17.035157v17.035156h-17.035157zm0 0"/></g><path d="m122.253906 477.734375c-21.335937-5.332031-31.835937-10.558594-36.132812-13.132813v-47.246093c38.273437-4.253907 68.140625-36.769531 68.140625-76.15625 0-.292969-.140625-.542969-.167969-.828125-.023438-.234375.066406-.460938.027344-.691406l-17.039063-93.695313c-.730469-4.050781-4.257812-6.996094-8.375-6.996094h-102.210937c-4.117188 0-7.644532 2.945313-8.375 6.996094l-17.035156 93.695313c-.042969.230468.050781.457031.027343.691406-.03125.285156-.167969.535156-.167969.828125 0 39.386719 29.867188 71.902343 68.140626 76.15625v47.21875c-4.414063 2.652343-14.917969 7.855469-36.132813 13.160156-20.15625 5.039063-30.167969 11.011719-32.492187 19.367187-1.429688 5.191407.707031 9.683594 2.980468 11.953126 1.597656 1.597656 3.757813 2.496093 6.019532 2.496093h136.28125c2.261718 0 4.425781-.898437 6.023437-2.496093 2.269531-2.269532 4.40625-6.761719 2.976563-11.953126-2.320313-8.355468-12.335938-14.328124-32.488282-19.367187zm-88.644531-221.710937h87.988281l13.9375 76.660156h-115.867187zm-15.023437 93.695312h118.03125c-4.140626 28.855469-29.03125 51.105469-59.015626 51.105469-29.988281 0-54.871093-22.25-59.015624-51.105469zm17.492187 144.796875c.324219-.082031.65625-.171875 1-.253906 22-5.5 34.152344-11.109375 40.523437-14.90625 6.371094 3.796875 18.523438 9.402343 40.527344 14.90625.339844.082031.671875.171875.996094.253906zm0 0"/><path d="m311.101562 175.476562c-11.6875-9.742187-13.207031-23.730468-15.136718-41.433593l-4.183594-31.332031h7.277344c4.707031 0 8.519531-3.8125 8.519531-8.519532v-34.070312c0-4.703125-3.8125-8.515625-8.519531-8.515625h-8.515625v-42.589844c0-4.703125-3.8125-8.515625-8.519531-8.515625h-51.105469c-4.707031 0-8.515625 3.8125-8.515625 8.515625v42.589844h-8.519532c-4.707031 0-8.515624 3.8125-8.515624 8.515625v34.070312c0 4.703125 3.808593 8.519532 8.515624 8.519532h7.277344l-3.832031 28.121093-.351563 3.210938c-1.925781 17.703125-3.449218 31.691406-15.136718 41.429687-19.40625 16.179688-30.542969 39.953125-30.542969 65.222656v262.339844c0 4.703125 3.808594 8.515625 8.515625 8.515625h153.316406c4.707032 0 8.515625-3.8125 8.515625-8.515625v-262.339844c0-25.269531-11.136719-49.042968-30.542969-65.21875zm-71.664062-157.941406h34.066406v34.070313h-34.066406zm85.175781 374.769532h-136.28125v-102.210938h136.277344v102.210938zm0 102.210937h-136.28125v-85.175781h136.277344v85.175781zm0-221.457031h-136.28125v-32.363282c0-20.199218 8.898438-39.203124 24.417969-52.136718 16.96875-14.144532 19.097656-33.734375 21.160156-52.671875l5.449219-40.542969c.332031-2.4375-.40625-4.898438-2.027344-6.753906-1.613281-1.851563-3.953125-2.914063-6.414062-2.914063h-8.519531v-17.035156h68.140624v17.035156h-8.515624c-2.460938 0-4.800782 1.0625-6.414063 2.914063-1.621094 1.855468-2.363281 4.316406-2.027344 6.753906l5.097657 37.367188.347656 3.175781c2.0625 18.9375 4.195312 38.527343 21.164062 52.671875 15.519532 12.933594 24.417969 31.9375 24.417969 52.136718v32.363282zm0 0"/><path d="m509.703125 241.691406c-1.617187-1.722656-3.871094-2.699218-6.222656-2.699218h-136.28125c-2.355469 0-4.609375.976562-6.222657 2.699218-1.605468 1.71875-2.4375 4.03125-2.277343 6.382813l17.035156 255.527343c.296875 4.472657 4.015625 7.949219 8.5 7.949219h102.210937c4.480469 0 8.199219-3.476562 8.5-7.949219l17.035157-255.527343c.15625-2.351563-.675781-4.664063-2.277344-6.382813zm-15.332031 14.332032-5.109375 76.660156h-107.84375l-5.109375-76.660156zm-15.894532 238.492187h-86.273437l-9.652344-144.796875h105.574219zm0 0"/></svg>